<svg width="259" height="247" viewBox="0 0 259 247" fill="none" xmlns="http://www.w3.org/2000/svg">
<path fill-rule="evenodd" clip-rule="evenodd" d="M76.7088 243.121C51.2415 238.986 17.4405 247.128 4.57603 221.651C-8.36179 196.028 15.0413 160.454 18.8882 128.612C22.3387 100.051 11.7454 69.913 25.9135 45.0349C40.265 19.8348 66.8396 9.46895 90.7263 2.4701C112.486 -3.9056 132.569 3.76824 153.683 7.59823C178.32 12.0675 205.991 8.08585 224.257 26.6931C244.913 47.7337 259.049 79.4646 258.22 114.084C257.374 149.395 242.775 186.565 219.817 212.118C198.541 235.802 168.888 237.987 141.594 243.9C119.253 248.74 98.3529 246.636 76.7088 243.121Z" fill="#E1E5F0"/>
</svg>
