<svg width="125" height="225" viewBox="0 0 125 225" fill="none" xmlns="http://www.w3.org/2000/svg">
<path d="M8.87541 20.0686L2.86294 11.3341L12.6363 15.7039L12.092 2.38804L19.7275 11.1124L26.032 0.69458L29.0753 12.5286L38.6309 11.3946L32.2919 21.636L42.669 28.3443L29.6593 26.1217L29.2287 36.9275L20.2966 29.6346L10.9192 37.6533L12.0524 27.1196L0.26001 26.1519L8.87541 20.0686Z" fill="white"/>
<path d="M8.87545 20.0693C8.87545 20.0693 8.69235 20.2104 8.32616 20.4725L6.67335 21.6569L0.289739 26.1929L0.260049 26.0821L12.0574 27.0245H12.1464V27.1153C11.8099 30.2703 11.4338 33.8286 11.0281 37.654L10.8648 37.5633L20.2373 29.5295L20.3066 29.474L20.3758 29.5295L29.3079 36.8325L29.115 36.9232C29.2486 33.496 29.3921 29.8671 29.5405 26.1123V25.9712H29.6791L42.669 28.219L42.5799 28.4559L32.7719 22.1004L32.2226 21.7476L32.1138 21.677L32.183 21.5662L38.5271 11.3298L38.6458 11.5264L29.0902 12.6553H28.9863L28.9566 12.5495L25.9182 0.710417L26.131 0.745697C23.9338 4.36782 21.8307 7.83706 19.8216 11.1534L19.7424 11.2845L19.6435 11.1736L12.0178 2.45428L12.191 2.38372C12.3889 7.30281 12.5621 11.7532 12.7205 15.6995V15.8306L12.6017 15.7751L2.83329 11.3853L2.90256 11.2945L7.35625 17.8466L8.5241 19.5098C8.77648 19.8828 8.89524 20.0693 8.89524 20.0693C8.89524 20.0693 8.75173 19.8778 8.48946 19.5048L7.30676 17.8466L2.81349 11.3802L2.68978 11.2038L2.88277 11.2895L12.671 15.6391L12.5572 15.7197C12.3889 11.7733 12.2009 7.32297 11.993 2.39883V2.11659L12.1761 2.32827L19.8216 11.0476H19.6435C21.6427 7.73121 23.7408 4.25862 25.938 0.629776L26.0865 0.382812L26.1557 0.660017L29.209 12.489L29.0754 12.3983L38.6161 11.2945L38.8834 11.2643L38.7398 11.4911C36.6681 14.8511 34.555 18.2649 32.4008 21.7325L32.3612 21.551L32.9105 21.9039L42.7383 28.2644L43.2727 28.6071L42.669 28.4761L29.6593 26.2433L29.8028 26.1274C29.6543 29.8621 29.5059 33.5061 29.3673 36.9333V37.1752L29.1842 37.024L20.2769 29.721H20.4154C17.0702 32.5737 13.9032 35.265 11.0132 37.7347L10.8252 37.8909V37.6439C11.2408 33.8236 11.6318 30.2653 11.9732 27.1102L12.0524 27.206L0.260049 26.198H0.0917969L0.230355 26.1022L6.62386 21.6266L8.29646 20.4624L8.87545 20.0693Z" fill="#263238"/>
<path d="M35.3601 32.3314C35.3601 32.3314 35.1473 32.3616 34.796 32.5078C34.3002 32.7231 33.8819 33.0893 33.5984 33.5561C33.4002 33.8715 33.2734 34.2279 33.2273 34.5994C33.1817 35.0238 33.2573 35.4526 33.445 35.8342C33.6368 36.2914 33.9625 36.6771 34.3775 36.9387C34.7926 37.2002 35.2769 37.3249 35.7641 37.2957C36.2514 37.2665 36.7179 37.0848 37.0999 36.7754C37.482 36.466 37.7609 36.044 37.8987 35.5671C38.0413 35.1646 38.0654 34.7284 37.968 34.3121C37.8799 33.9424 37.7107 33.5978 37.4731 33.3041C37.1372 32.8747 36.6792 32.5614 36.1618 32.407C35.9691 32.36 35.7742 32.323 35.5779 32.2961H35.7313C35.7955 32.2916 35.86 32.2916 35.9243 32.2961C36.0108 32.306 36.0968 32.3211 36.1816 32.3415C36.7268 32.474 37.2148 32.7836 37.5721 33.2235C37.8261 33.5232 38.009 33.8785 38.1066 34.2617C38.2198 34.7062 38.1991 35.1751 38.0472 35.6074C37.8896 36.0894 37.6055 36.5181 37.2257 36.8473C36.818 37.2026 36.3106 37.4178 35.7758 37.4622C35.2397 37.4831 34.7111 37.3295 34.2665 37.0237C33.849 36.7516 33.5147 36.3657 33.3015 35.9098C33.1036 35.4973 33.0279 35.0349 33.0838 34.5793C33.157 34.1092 33.3494 33.6667 33.6418 33.2955C33.9343 32.9243 34.3168 32.6371 34.7515 32.4624C34.8336 32.4307 34.9179 32.4054 35.0038 32.3868C35.0649 32.3685 35.1282 32.3583 35.1919 32.3566C35.3057 32.3264 35.3601 32.3213 35.3601 32.3314Z" fill="#263238"/>
<path d="M41.6346 38.6817C41.6346 38.6817 41.501 38.7119 41.2832 38.8077C40.9788 38.9487 40.7222 39.1785 40.5459 39.4679C40.4132 39.6746 40.3353 39.9127 40.3197 40.1591C40.3041 40.4055 40.3513 40.6518 40.4568 40.8741C40.5854 41.1425 40.7891 41.3662 41.0423 41.5168C41.2955 41.6675 41.5869 41.7384 41.8796 41.7206C42.1723 41.7028 42.4533 41.5971 42.6871 41.4168C42.9209 41.2366 43.0971 40.9899 43.1934 40.7078C43.2723 40.4742 43.2905 40.2238 43.2463 39.9809C43.2021 39.738 43.0969 39.511 42.941 39.3217C42.7342 39.055 42.453 38.8582 42.1344 38.7573C41.9068 38.6867 41.7682 38.6917 41.7682 38.6766C41.8929 38.6416 42.0245 38.6416 42.1492 38.6766C42.4979 38.7572 42.8119 38.9498 43.0449 39.226C43.2064 39.4195 43.3247 39.6465 43.3913 39.8913C43.4609 40.1777 43.4489 40.4784 43.3567 40.7582C43.2606 41.0837 43.0686 41.3714 42.8067 41.5821C42.5447 41.7928 42.2256 41.9164 41.8923 41.9362C41.5591 41.956 41.228 41.871 40.9438 41.6928C40.6596 41.5145 40.436 41.2516 40.3034 40.9396C40.1777 40.6734 40.1312 40.3756 40.1698 40.0828C40.2056 39.8332 40.297 39.5953 40.437 39.3873C40.6312 39.0814 40.9204 38.8507 41.2585 38.7321C41.3782 38.6852 41.5071 38.668 41.6346 38.6817V38.6817Z" fill="#263238"/>
<path d="M18.3022 14.4492L18.3517 19.9933C18.3549 20.2124 18.4358 20.4229 18.5795 20.5859C18.7233 20.749 18.9201 20.8536 19.1336 20.8803V20.8803C19.3619 20.9095 19.5924 20.8477 19.7768 20.7077C19.9613 20.5677 20.0855 20.3605 20.1233 20.1293L21.0239 14.5853C21.0321 14.4891 21.0208 14.3922 20.991 14.3006C20.9611 14.2089 20.9132 14.1245 20.8503 14.0523C20.7873 13.9802 20.7105 13.9218 20.6247 13.8809C20.5388 13.8399 20.4457 13.8172 20.3509 13.8142L19.0247 13.7587C18.9325 13.7547 18.8404 13.7694 18.7539 13.8021C18.6674 13.8348 18.5881 13.8848 18.5208 13.9491C18.4535 14.0134 18.3995 14.0908 18.362 14.1767C18.3245 14.2626 18.3041 14.3552 18.3022 14.4492V14.4492Z" fill="#263238"/>
<path d="M20.4006 24.0964C20.3041 24.3458 20.1372 24.5605 19.921 24.7133C19.7047 24.8661 19.4489 24.9502 19.1857 24.955C18.9225 24.9597 18.6639 24.8849 18.4425 24.74C18.221 24.5951 18.0468 24.3866 17.9417 24.1408C17.8366 23.895 17.8054 23.623 17.852 23.3592C17.8986 23.0954 18.021 22.8515 18.2037 22.6585C18.3864 22.4655 18.6211 22.332 18.8782 22.2748C19.1354 22.2177 19.4034 22.2394 19.6484 22.3374C19.8113 22.4025 19.9599 22.4996 20.0859 22.6233C20.2119 22.747 20.3127 22.8947 20.3825 23.0581C20.4524 23.2214 20.4899 23.3972 20.493 23.5754C20.4961 23.7535 20.4647 23.9306 20.4006 24.0964V24.0964Z" fill="#263238"/>
<path d="M22.449 14.6759L22.4984 20.22C22.5007 20.4402 22.582 20.6519 22.7269 20.8153C22.8718 20.9787 23.0704 21.0825 23.2853 21.107V21.107C23.5132 21.139 23.7444 21.0788 23.9293 20.9394C24.1143 20.8 24.2383 20.5925 24.275 20.3611L25.1756 14.8171C25.1926 14.7184 25.1887 14.6171 25.1641 14.5201C25.1394 14.4231 25.0946 14.3326 25.0327 14.2548C24.9708 14.1769 24.8932 14.1135 24.8052 14.0687C24.7171 14.024 24.6207 13.9991 24.5224 13.9955L23.1912 13.9401C23.0936 13.9329 22.9956 13.9468 22.9037 13.9809C22.8117 14.0151 22.728 14.0687 22.6578 14.1382C22.5877 14.2077 22.5328 14.2916 22.4968 14.3843C22.4608 14.477 22.4445 14.5764 22.449 14.6759V14.6759Z" fill="#263238"/>
<path d="M24.562 24.3276C24.4655 24.577 24.2986 24.7917 24.0824 24.9445C23.8661 25.0973 23.6102 25.1814 23.3471 25.1862C23.0839 25.1909 22.8253 25.1161 22.6038 24.9712C22.3824 24.8263 22.2081 24.6178 22.103 24.372C21.9979 24.1262 21.9667 23.8542 22.0134 23.5904C22.06 23.3266 22.1824 23.0827 22.3651 22.8897C22.5477 22.6967 22.7825 22.5632 23.0396 22.506C23.2968 22.4489 23.5648 22.4706 23.8098 22.5686C23.9727 22.6337 24.1213 22.7308 24.2473 22.8545C24.3733 22.9782 24.474 23.1259 24.5439 23.2893C24.6138 23.4526 24.6513 23.6284 24.6544 23.8066C24.6575 23.9847 24.6261 24.1618 24.562 24.3276V24.3276Z" fill="#263238"/>
<path d="M105.03 24.2927L109.548 17.7356L102.21 21.0116L102.616 11.0172L96.8851 17.5642L92.1544 9.74707L89.8632 18.6277L82.6928 17.7809L87.4532 25.467L79.6593 30.5071L89.4277 28.8338L89.7494 36.9483L96.4546 31.4697L103.496 37.4976L102.645 29.5847L111.503 28.859L105.03 24.2927Z" fill="white"/>
<path d="M105.021 24.2927L105.466 24.5901L106.728 25.462L111.528 28.8086L111.667 28.9044H111.498L102.645 29.6554L102.72 29.5596C102.982 31.9284 103.274 34.5997 103.586 37.4725L103.615 37.7194L103.427 37.5582L96.3755 31.5454H96.5141L89.8138 37.029L89.6307 37.1802V36.9382C89.5268 34.3678 89.4179 31.6311 89.3041 28.8238L89.4476 28.9447L79.6792 30.618L79.0557 30.7289L79.5901 30.3811L86.9733 25.6082L87.384 25.3411L87.3445 25.5225C85.7213 22.9319 84.1378 20.3665 82.584 17.8465L82.4405 17.6147L82.7077 17.6449L89.8781 18.5017L89.7445 18.5975L92.0357 9.7169L92.1049 9.4397L92.2534 9.68162L96.9793 17.5088H96.8011L102.541 10.9568L102.729 10.7451V11.0273C102.576 14.7217 102.433 18.0834 102.304 21.0268L102.19 20.9461L109.539 17.6903L109.732 17.6046L109.613 17.781L106.233 22.6245L105.357 23.8744L105.045 24.3028L105.322 23.8795L106.174 22.6245L109.514 17.7104L109.588 17.8012L102.254 21.1024L102.136 21.1528V21.0217C102.249 18.0582 102.383 14.7166 102.527 11.0223L102.7 11.0928L96.9793 17.6449L96.8803 17.7608L96.8011 17.6298L92.0604 9.8177L92.2781 9.78242C91.5408 12.6452 90.7936 15.6138 89.9969 18.668L89.9672 18.7739H89.8583L82.6879 17.9272L82.8066 17.7255L87.5622 25.4066L87.6265 25.5175L87.5226 25.588L87.1069 25.8552L79.7287 30.6281L79.6396 30.3862L89.408 28.7179H89.5466V28.859C89.6554 31.6663 89.7643 34.4031 89.8633 36.9735L89.6703 36.8878L96.3805 31.4143L96.4547 31.3589L96.524 31.4143L103.556 37.4624L103.398 37.5531C103.091 34.6803 102.809 32.0091 102.561 29.6402V29.5495H102.645L111.503 28.849L111.454 28.9346L106.664 25.5124L105.426 24.6203C105.164 24.3986 105.021 24.2927 105.021 24.2927Z" fill="#263238"/>
<path d="M85.147 33.4956C85.147 33.4956 85.3053 33.4956 85.5725 33.6316C85.9438 33.7952 86.2577 34.0693 86.4732 34.4179C86.621 34.6543 86.7156 34.9211 86.7503 35.1991C86.7828 35.5177 86.7262 35.8392 86.587 36.1265C86.4406 36.4658 86.1957 36.7513 85.8853 36.9446C85.5748 37.138 85.2137 37.2298 84.8504 37.2079C84.4872 37.1859 84.1393 37.0512 83.8534 36.8218C83.5676 36.5925 83.3576 36.2794 83.2517 35.9249C83.146 35.6241 83.1271 35.2988 83.1972 34.9874C83.2842 34.6532 83.4542 34.3473 83.6908 34.0993C83.9274 33.8513 84.2226 33.6694 84.5482 33.5712C84.8253 33.4905 84.9886 33.5006 84.9886 33.4855C84.9491 33.4811 84.9093 33.4811 84.8698 33.4855C84.8221 33.4811 84.7741 33.4811 84.7263 33.4855C84.6628 33.4894 84.5999 33.4995 84.5383 33.5157C84.1915 33.6007 83.8737 33.7795 83.6185 34.0332C83.3633 34.2869 83.1801 34.6062 83.0884 34.9572C83.0082 35.2906 83.0237 35.6404 83.1329 35.9652C83.2535 36.3238 83.4694 36.6413 83.7564 36.8825C84.0611 37.152 84.4428 37.3146 84.8451 37.3462C85.247 37.3589 85.6429 37.2445 85.9783 37.0186C86.2907 36.8111 86.5407 36.5199 86.7008 36.1769C86.852 35.8647 86.9088 35.5139 86.8641 35.1689C86.8209 34.875 86.7144 34.5944 86.5523 34.3473C86.3244 33.9874 85.9873 33.713 85.5923 33.5661C85.5319 33.5404 85.4688 33.5218 85.4043 33.5107C85.3582 33.5051 85.3117 33.5051 85.2657 33.5107L85.147 33.4956Z" fill="#263238"/>
<path d="M80.4361 38.2685C80.4361 38.2685 80.5351 38.2685 80.6984 38.3643C80.9311 38.4679 81.1253 38.6445 81.2526 38.8683C81.3527 39.0227 81.4118 39.201 81.4239 39.3857C81.4361 39.5703 81.4009 39.755 81.3219 39.9217C81.2237 40.118 81.0743 40.283 80.8902 40.3986C80.706 40.5142 80.4941 40.5759 80.2778 40.5769C80.056 40.5566 79.8448 40.4716 79.6692 40.3322C79.4937 40.1927 79.3614 40.0047 79.288 39.7906C79.2275 39.6151 79.213 39.4265 79.246 39.2435C79.279 39.0606 79.3583 38.8895 79.4761 38.7473C79.6303 38.5469 79.8409 38.3992 80.0798 38.324C80.253 38.2736 80.3569 38.2736 80.3569 38.2585C80.2625 38.2364 80.1644 38.2364 80.0699 38.2585C79.8082 38.3201 79.5726 38.4648 79.3969 38.6717C79.275 38.8179 79.1871 38.9902 79.1396 39.1757C79.0781 39.3879 79.0781 39.6137 79.1396 39.8259C79.22 40.0655 79.3662 40.2764 79.561 40.4337C79.7558 40.591 79.9908 40.6879 80.2382 40.713C80.4872 40.72 80.7328 40.6526 80.9447 40.5191C81.1566 40.3857 81.3256 40.192 81.4308 39.962C81.5256 39.7634 81.5601 39.5405 81.5297 39.3219C81.5019 39.1408 81.4343 38.9685 81.3318 38.8179C81.1849 38.5859 80.9677 38.409 80.7132 38.3139C80.6255 38.2773 80.5307 38.2618 80.4361 38.2685V38.2685Z" fill="#263238"/>
<path d="M97.954 20.0689L97.9193 24.2471C97.9156 24.4104 97.8538 24.5667 97.7455 24.6872C97.6373 24.8077 97.4898 24.8841 97.3305 24.9023V24.9023C97.1644 24.9192 96.9982 24.8722 96.8645 24.7705C96.7308 24.6688 96.6393 24.5199 96.608 24.353L95.935 20.1949C95.9222 20.1203 95.9253 20.0438 95.944 19.9705C95.9628 19.8972 95.9968 19.8288 96.0437 19.7701C96.0906 19.7113 96.1493 19.6635 96.216 19.6298C96.2826 19.5962 96.3555 19.5775 96.4298 19.575L97.4195 19.5347C97.4904 19.5287 97.5616 19.5384 97.6284 19.563C97.6952 19.5876 97.756 19.6266 97.8068 19.6773C97.8575 19.728 97.8968 19.7892 97.9223 19.8567C97.9477 19.9243 97.9585 19.9967 97.954 20.0689V20.0689Z" fill="#263238"/>
<path d="M96.3704 27.3165C96.4436 27.5004 96.5685 27.6583 96.7295 27.7702C96.8904 27.8821 97.0803 27.9431 97.2751 27.9456C97.47 27.9481 97.6612 27.892 97.8249 27.7842C97.9886 27.6765 98.1173 27.5219 98.1951 27.3399C98.2728 27.1579 98.2961 26.9565 98.262 26.7611C98.2278 26.5657 98.1378 26.3849 98.0032 26.2414C97.8686 26.0979 97.6953 25.998 97.5052 25.9544C97.3151 25.9107 97.1166 25.9252 96.9345 25.996C96.8115 26.0438 96.6991 26.1162 96.6039 26.2088C96.5087 26.3015 96.4326 26.4125 96.38 26.5355C96.3275 26.6585 96.2996 26.7909 96.2979 26.925C96.2963 27.0591 96.3209 27.1922 96.3704 27.3165V27.3165Z" fill="#263238"/>
<path d="M94.8411 20.2452L94.8015 24.3982C94.8023 24.5639 94.7424 24.7239 94.6335 24.8469C94.5246 24.97 94.3745 25.0472 94.2127 25.0635C94.0437 25.0852 93.8732 25.0389 93.7373 24.9344C93.6014 24.8299 93.511 24.6755 93.4852 24.5041L92.8073 20.3662C92.7953 20.2917 92.799 20.2155 92.8181 20.1425C92.8372 20.0696 92.8712 20.0016 92.918 19.943C92.9647 19.8844 93.0231 19.8366 93.0893 19.8027C93.1556 19.7688 93.2281 19.7495 93.3021 19.7463L94.2918 19.7059C94.363 19.7032 94.434 19.7152 94.5006 19.7411C94.5671 19.7669 94.6278 19.8062 94.6791 19.8566C94.7304 19.9069 94.7712 19.9673 94.799 20.0341C94.8269 20.1009 94.8412 20.1727 94.8411 20.2452Z" fill="#263238"/>
<path d="M93.2577 27.4879C93.331 27.6718 93.4559 27.8296 93.6168 27.9416C93.7778 28.0535 93.9676 28.1145 94.1624 28.117C94.3573 28.1195 94.5486 28.0634 94.7122 27.9556C94.8759 27.8478 95.0046 27.6933 95.0824 27.5113C95.1602 27.3293 95.1834 27.1279 95.1493 26.9325C95.1151 26.7371 95.0251 26.5563 94.8905 26.4128C94.7559 26.2693 94.5827 26.1694 94.3926 26.1258C94.2024 26.0821 94.0039 26.0966 93.8218 26.1674C93.6988 26.2152 93.5864 26.2876 93.4912 26.3802C93.396 26.4729 93.3199 26.5839 93.2674 26.7069C93.2148 26.8299 93.1869 26.9623 93.1853 27.0964C93.1836 27.2305 93.2082 27.3636 93.2577 27.4879V27.4879Z" fill="#263238"/>
<path d="M101.324 161.356H18.7627V214.781H101.324V161.356Z" fill="#455A64"/>
<path d="M99.5227 159.834H16.6743C11.7112 159.834 7.68774 163.932 7.68774 168.987V169.43C7.68774 174.485 11.7112 178.583 16.6743 178.583H99.5227C104.486 178.583 108.509 174.485 108.509 169.43V168.987C108.509 163.932 104.486 159.834 99.5227 159.834Z" fill="#455A64"/>
<path d="M101.433 178.331C101.433 178.402 82.1337 178.462 58.3807 178.462C34.6277 178.462 15.3037 178.402 15.3037 178.331C15.3037 178.261 34.603 178.195 58.3807 178.195C82.1584 178.195 101.433 178.256 101.433 178.331Z" fill="#263238"/>
<path d="M29.8027 215.215C29.7335 215.215 29.6741 207.07 29.6741 197.025C29.6741 186.98 29.7335 178.835 29.8027 178.835C29.872 178.835 29.9314 186.975 29.9314 197.025C29.9314 207.075 29.8621 215.215 29.8027 215.215Z" fill="#263238"/>
<path d="M81.9752 171.018C81.844 170.564 81.7367 170.103 81.6535 169.637C81.3931 168.53 81.0354 167.449 80.5846 166.407C80.1306 165.368 79.584 164.375 78.9516 163.438C78.6693 163.061 78.4066 162.669 78.1648 162.264C78.5223 162.574 78.8369 162.931 79.1001 163.327C79.7844 164.248 80.3623 165.245 80.8222 166.301C81.2721 167.358 81.604 168.464 81.8119 169.597C81.9264 170.062 81.9812 170.539 81.9752 171.018V171.018Z" fill="#263238"/>
<path d="M86.409 168.216C86.3644 168.216 86.1813 167.677 85.7409 166.865C85.1636 165.811 84.4119 164.867 83.519 164.073C82.6215 163.286 81.5991 162.661 80.4955 162.223C79.6443 161.896 79.0802 161.79 79.0901 161.719C79.2247 161.71 79.3599 161.722 79.4909 161.755C79.852 161.817 80.2077 161.908 80.5549 162.027C82.8792 162.827 84.8008 164.527 85.9042 166.759C86.0698 167.093 86.2072 167.44 86.315 167.798C86.3702 167.93 86.4021 168.072 86.409 168.216V168.216Z" fill="#263238"/>
<path d="M47.6571 64.3909L35.3402 66.4321L34.4396 91.7281V141.69H89.8137V83.1147L82.6235 66.4321L47.6571 64.3909Z" fill="#C6E1F6"/>
<path d="M35.3401 66.4321C35.3401 66.4321 25.3688 71.326 23.6764 82.273C21.984 93.22 17.5205 105.397 16.6743 107.856C15.8281 110.316 13.0519 120.522 17.278 124.705C21.504 128.888 23.3152 128.516 25.9726 128.148C28.6299 127.78 33.4201 123.657 35.5034 121.51C38.0123 118.919 36.6713 114.454 36.6713 114.454L35.3401 66.4321Z" fill="#C6E1F6"/>
<path d="M82.6233 66.4321C82.6233 66.4321 89.8135 68.0601 93.1884 73.3168C96.113 77.8529 100.23 92.0306 100.23 92.0306C100.23 92.0306 106.737 110.175 105.941 115.391C105.144 120.608 98.1073 127.387 93.8268 124.408C89.9966 121.737 86.9335 119.368 85.2609 117.322C84.6608 116.354 84.3512 115.23 84.3701 114.086L86.112 88.4622L82.6233 66.4321Z" fill="#C6E1F6"/>
<path d="M20.1186 111.299C19.7892 110.908 19.5794 110.428 19.5148 109.918C19.2668 108.701 19.3929 107.436 19.8761 106.294C20.1373 105.662 20.5249 105.092 21.0142 104.621C21.4373 104.243 21.9762 104.028 22.5384 104.011C22.907 104 23.2748 104.051 23.6271 104.162C23.7577 104.193 23.8829 104.244 23.9982 104.313C23.5189 104.234 23.0339 104.195 22.5483 104.197C22.0339 104.233 21.5469 104.447 21.1676 104.802C20.7165 105.262 20.3569 105.806 20.1087 106.405C19.6516 107.503 19.5092 108.711 19.6979 109.888C19.7849 110.373 19.926 110.846 20.1186 111.299Z" fill="#263238"/>
<path d="M36.3348 90.8963C36.246 89.3419 36.246 87.7836 36.3348 86.2292C36.3411 84.671 36.4353 83.1144 36.6169 81.5671C36.6929 83.1221 36.6846 84.6802 36.5921 86.2342C36.5894 87.7919 36.5035 89.3482 36.3348 90.8963V90.8963Z" fill="#263238"/>
<path d="M20.8508 104.862C20.8508 104.938 20.356 104.862 19.7819 104.978C19.2079 105.094 18.7922 105.346 18.7576 105.286C18.723 105.225 19.0941 104.847 19.7473 104.716C19.9308 104.658 20.1243 104.641 20.3147 104.667C20.5052 104.692 20.688 104.759 20.8508 104.862V104.862Z" fill="#263238"/>
<path d="M84.6573 86.2397C84.5433 85.7729 84.4656 85.2977 84.4247 84.8184C84.301 83.9415 84.1179 82.7318 83.8655 81.4063C83.6131 80.0808 83.3311 78.8863 83.1183 78.0295C82.9786 77.5697 82.8743 77.0996 82.8065 76.6233C83.0206 77.055 83.1866 77.5098 83.3014 77.9791C83.631 79.0898 83.9052 80.2169 84.1228 81.3559C84.3474 82.4936 84.5126 83.6427 84.6177 84.7983C84.6787 85.2762 84.6919 85.7591 84.6573 86.2397V86.2397Z" fill="#263238"/>
<path d="M74.6958 118.3C74.6357 118.385 74.5695 118.466 74.4979 118.541L73.8942 119.202C73.6368 119.489 73.3102 119.832 72.9044 120.21C72.4987 120.588 72.0681 121.041 71.5436 121.495C71.0191 121.949 70.4648 122.468 69.8265 122.972C69.1881 123.476 68.5052 124.015 67.7728 124.564C66.1617 125.714 64.4862 126.768 62.755 127.719C61.007 128.653 59.2058 129.479 57.3611 130.194C56.505 130.502 55.6934 130.809 54.9165 131.036C54.1396 131.263 53.432 131.489 52.754 131.661C52.0761 131.832 51.4773 131.968 50.9478 132.084C50.4183 132.2 49.9581 132.291 49.5721 132.351L48.6962 132.487C48.5952 132.508 48.4924 132.518 48.3894 132.518C48.4862 132.476 48.5876 132.448 48.6913 132.432L49.5523 132.25C49.9284 132.175 50.3886 132.079 50.9181 131.943C51.4476 131.807 52.0513 131.681 52.7045 131.479C53.3577 131.278 54.0901 131.091 54.8522 130.829C55.6143 130.567 56.4258 130.28 57.277 129.967C60.956 128.541 64.4467 126.655 67.6689 124.353C68.4013 123.813 69.104 123.309 69.7275 122.79C70.351 122.271 70.9399 121.782 71.4595 121.349C71.9791 120.915 72.4492 120.462 72.8352 120.094C73.2211 119.726 73.5774 119.388 73.8249 119.116L74.4583 118.486C74.6067 118.36 74.6859 118.289 74.6958 118.3Z" fill="#263238"/>
<g opacity="0.3">
<path opacity="0.3" d="M97.7905 110.175C97.7905 110.795 97.9142 111.017 98.2854 111.143C98.4456 111.158 98.6073 111.14 98.76 111.088C98.9126 111.036 99.0527 110.951 99.1712 110.84C99.9236 110.031 100.368 108.975 100.423 107.861C100.672 105.636 100.234 103.386 99.1712 101.425C99.5015 102.69 99.5015 104.021 99.1712 105.286L97.7905 110.175Z" fill="black"/>
</g>
<g opacity="0.3">
<path opacity="0.3" d="M22.5086 114.806C21.9692 113.294 20.5737 112.286 19.8512 110.84C18.9951 109.146 19.6582 106.304 20.8409 104.862C19.1485 105.956 18.8615 108.461 18.7972 110.336C18.7111 112.232 19.3135 114.095 20.4896 115.567C20.7264 115.876 21.0362 116.119 21.3902 116.273C21.5689 116.341 21.7629 116.354 21.949 116.312C22.1352 116.27 22.3054 116.174 22.4393 116.036C22.5519 115.854 22.6173 115.645 22.6294 115.43C22.6415 115.215 22.5999 115.001 22.5086 114.806Z" fill="black"/>
</g>
<path d="M30.6441 86.1589C29.9196 85.3433 29.2579 84.4722 28.6646 83.5532C28.0024 82.6824 27.41 81.7588 26.8931 80.7913C27.6175 81.6069 28.2792 82.478 28.8725 83.397C29.5356 84.2672 30.128 85.1909 30.6441 86.1589V86.1589Z" fill="white"/>
<path d="M27.0514 96.8638C26.3741 97.4478 25.6433 97.9643 24.8691 98.406C24.1401 98.9216 23.3627 99.3623 22.5482 99.7215C23.2278 99.1382 23.9602 98.6218 24.7355 98.1792C25.4652 97.6678 26.2406 97.2273 27.0514 96.8638V96.8638Z" fill="white"/>
<path d="M37.265 100.629C36.4813 100.038 35.7495 99.3783 35.0777 98.6582C34.3487 98.0007 33.6766 97.2807 33.0686 96.5061C33.8516 97.098 34.5804 97.761 35.246 98.4868C35.9785 99.14 36.6541 99.8567 37.265 100.629V100.629Z" fill="white"/>
<path d="M21.8853 112.957C21.976 111.815 22.2363 110.693 22.6572 109.63C22.6565 110.205 22.5681 110.777 22.395 111.324C22.3084 111.892 22.1365 112.442 21.8853 112.957Z" fill="white"/>
<path d="M20.6431 121.989C20.5837 122.039 19.5792 120.834 18.2035 119.469C16.8278 118.103 15.6204 117.13 15.6649 117.064C15.9741 117.216 16.262 117.41 16.521 117.639C17.8263 118.658 19.0118 119.826 20.0542 121.122C20.2887 121.382 20.4868 121.673 20.6431 121.989V121.989Z" fill="white"/>
<path d="M26.8337 119.912C26.4001 120.946 25.8906 121.945 25.3095 122.901C24.7983 123.899 24.2126 124.856 23.5577 125.763C23.99 124.729 24.4996 123.73 25.0819 122.775C25.591 121.775 26.1767 120.818 26.8337 119.912V119.912Z" fill="white"/>
<path d="M32.772 120.088C32.7176 120.139 31.9654 119.302 30.9361 118.39C29.9068 117.478 29.0012 116.827 29.0408 116.762C29.8048 117.117 30.5042 117.6 31.1093 118.193C31.7668 118.722 32.3294 119.364 32.772 120.088Z" fill="white"/>
<path d="M35.84 73.332C35.3549 74.2196 34.7953 75.0628 34.1674 75.8521C33.6098 76.6995 32.9824 77.497 32.2919 78.236C32.7759 77.3489 33.3338 76.5058 33.9595 75.716C34.5186 74.8683 35.1477 74.0707 35.84 73.332V73.332Z" fill="white"/>
<path d="M43.3518 73.0446C42.5551 72.2636 41.8189 71.4211 41.1497 70.5246C40.4231 69.6787 39.7614 68.7772 39.1703 67.8281C39.9655 68.6105 40.7016 69.4529 41.3724 70.3482C42.0977 71.1951 42.7593 72.0965 43.3518 73.0446Z" fill="white"/>
<path d="M44.3416 89.4148C43.6703 88.6018 43.1048 87.704 42.6591 86.7435C42.1377 85.8246 41.7321 84.8425 41.4517 83.8203C41.5209 83.8203 42.09 85.0854 42.8867 86.6226C43.6835 88.1598 44.401 89.3845 44.3416 89.4148Z" fill="white"/>
<path d="M54.0802 84.1277C52.9541 83.8539 51.8506 83.4916 50.7795 83.044C49.6773 82.6819 48.6023 82.2389 47.563 81.7185C48.6886 81.9918 49.7921 82.3523 50.8637 82.7971C51.9656 83.1621 53.0405 83.6068 54.0802 84.1277Z" fill="white"/>
<path d="M55.7973 71.321C55.832 71.3866 54.9957 71.9258 54.0456 72.697C53.0955 73.4681 52.3878 74.1788 52.3334 74.1233C52.747 73.4866 53.274 72.9344 53.8872 72.4954C54.4454 71.9845 55.0935 71.5861 55.7973 71.321Z" fill="white"/>
<path d="M50.2996 101.566C49.9888 100.323 49.7607 99.0604 49.6167 97.7862C49.3898 96.5239 49.2459 95.2476 49.1862 93.9658C49.5001 95.2083 49.7299 96.4713 49.874 97.7459C50.1041 99.0075 50.2463 100.284 50.2996 101.566Z" fill="white"/>
<path d="M48.6468 109.459C47.5449 108.944 46.4815 108.347 45.4649 107.675C44.4054 107.076 43.3885 106.402 42.4215 105.659C43.5214 106.174 44.5832 106.771 45.5985 107.443C46.6594 108.042 47.678 108.715 48.6468 109.459Z" fill="white"/>
<path d="M41.7634 119.942C41.3536 119.094 41.0223 118.208 40.7737 117.296C40.4444 116.411 40.1943 115.496 40.0265 114.565C40.4363 115.414 40.7677 116.299 41.0162 117.211C41.3455 118.097 41.5956 119.011 41.7634 119.942V119.942Z" fill="white"/>
<path d="M45.3709 130.385C44.332 129.963 43.3276 129.457 42.3672 128.873C41.3673 128.372 40.4062 127.794 39.4921 127.145C40.5291 127.568 41.5318 128.073 42.4909 128.657C43.4923 129.158 44.4551 129.736 45.3709 130.385V130.385Z" fill="white"/>
<path d="M55.7132 117.523C55.2888 118.992 54.7833 120.436 54.199 121.847C53.6938 123.29 53.1072 124.702 52.4423 126.076C52.8685 124.607 53.374 123.164 53.9565 121.752C54.4629 120.309 55.0494 118.897 55.7132 117.523V117.523Z" fill="white"/>
<path d="M63.4082 111.541C63.3488 111.601 62.0819 110.286 60.2262 109.066C58.3705 107.846 56.693 107.176 56.7227 107.1C57.1126 107.173 57.4906 107.3 57.846 107.478C59.6076 108.235 61.2216 109.307 62.6114 110.644C62.9158 110.904 63.1838 111.206 63.4082 111.541V111.541Z" fill="white"/>
<path d="M70.4204 99.1926C69.8154 100.042 69.1435 100.839 68.4113 101.577C67.7391 102.371 67.0043 103.107 66.2141 103.779C66.8168 102.928 67.4889 102.131 68.2232 101.395C68.8925 100.598 69.6275 99.8615 70.4204 99.1926Z" fill="white"/>
<path d="M63.4082 97.5997C63.329 97.5997 63.1014 96.2843 62.4927 94.7571C61.884 93.23 61.1665 92.101 61.2308 92.0557C61.8832 92.8188 62.387 93.7014 62.7154 94.6563C63.1311 95.5826 63.3664 96.5822 63.4082 97.5997Z" fill="white"/>
<path d="M66.5356 80.1917C66.5901 80.2421 65.6053 81.4668 64.5117 83.0695C63.4181 84.6723 62.6213 86.0331 62.557 85.9928C62.6584 85.6595 62.805 85.3423 62.9925 85.0503C63.7922 83.5832 64.7373 82.2034 65.8131 80.9325C66.0173 80.6511 66.2607 80.4015 66.5356 80.1917V80.1917Z" fill="white"/>
<path d="M64.388 75.5595C63.8607 74.7497 63.4068 73.8927 63.0321 72.9991C62.5804 72.1452 62.206 71.2511 61.9137 70.3279C62.4382 71.1385 62.8903 71.9954 63.2646 72.8882C63.7166 73.7427 64.0925 74.6367 64.388 75.5595V75.5595Z" fill="white"/>
<path d="M79.1645 106.369C78.466 107.142 77.7064 107.855 76.8931 108.501C76.1355 109.214 75.3193 109.86 74.4535 110.432C75.1549 109.662 75.9143 108.949 76.7249 108.3C77.4836 107.588 78.2997 106.942 79.1645 106.369V106.369Z" fill="white"/>
<path d="M76.4724 93.1643C75.4772 92.977 74.5002 92.7004 73.5528 92.3377C72.5794 92.0627 71.6307 91.7035 70.7173 91.2642C71.71 91.4553 72.6851 91.7318 73.632 92.0907C74.6063 92.368 75.5564 92.7271 76.4724 93.1643Z" fill="white"/>
<path d="M78.2983 85.2365C78.7292 84.1748 79.2371 83.1471 79.8175 82.1621C80.3261 81.1358 80.91 80.1502 81.5644 79.2136C81.1359 80.2765 80.628 81.3043 80.0452 82.2881C79.5388 83.3155 78.9548 84.3013 78.2983 85.2365V85.2365Z" fill="white"/>
<path d="M84.8848 71.2203C83.4593 71.0545 82.0448 70.8021 80.6489 70.4643C79.2347 70.2145 77.8367 69.8779 76.4624 69.4563C77.8881 69.6187 79.3027 69.8695 80.6983 70.2073C82.1123 70.4601 83.5103 70.7984 84.8848 71.2203V71.2203Z" fill="white"/>
<path d="M87.9778 77.9585C88.3103 76.9356 88.7258 75.9426 89.2199 74.9899C89.6363 73.9988 90.1329 73.0446 90.7044 72.1372C90.3671 73.1574 89.9501 74.1484 89.4574 75.1008C89.0393 76.0918 88.5446 77.0473 87.9778 77.9585Z" fill="white"/>
<path d="M94.7721 89.7322C93.7557 88.9305 92.7919 88.0617 91.8871 87.1316C90.9266 86.2629 90.024 85.3301 89.1852 84.3394C90.201 85.1399 91.1632 86.0087 92.0652 86.94C93.0278 87.808 93.9322 88.7409 94.7721 89.7322V89.7322Z" fill="white"/>
<path d="M93.5696 100.125C94.0892 99.2807 94.6803 98.4847 95.3362 97.7458C95.9289 96.9487 96.5914 96.2082 97.3156 95.5332C96.7946 96.3762 96.2036 97.172 95.549 97.9121C94.9547 98.7078 94.2923 99.4482 93.5696 100.125V100.125Z" fill="white"/>
<path d="M84.1229 122.175C84.5744 120.882 85.1066 119.619 85.7164 118.395C86.2488 117.134 86.8587 115.909 87.5424 114.726C87.0909 116.019 86.5587 117.282 85.9489 118.506C85.4165 119.767 84.8066 120.992 84.1229 122.175V122.175Z" fill="white"/>
<path d="M80.3274 128.818C79.4435 127.765 78.6285 126.653 77.8877 125.491C77.0756 124.378 76.3319 123.215 75.6609 122.009C76.5407 123.067 77.3555 124.18 78.1005 125.34C78.9111 126.453 79.6548 127.614 80.3274 128.818Z" fill="white"/>
<path d="M70.6976 133.384C70.3501 134.364 69.9213 135.311 69.4159 136.217C68.9868 137.163 68.482 138.072 67.9066 138.933C68.2535 137.952 68.6823 137.003 69.1883 136.096C69.6203 135.153 70.125 134.246 70.6976 133.384V133.384Z" fill="white"/>
<path d="M62.1416 140.223C60.654 138.485 59.3023 136.632 58.0986 134.679C58.8692 135.525 59.5787 136.426 60.2216 137.376C60.9317 138.274 61.5736 139.226 62.1416 140.223V140.223Z" fill="white"/>
<path d="M44.1088 139.266C43.4646 138.582 42.8817 137.842 42.3669 137.053C41.7838 136.312 41.2702 135.518 40.8329 134.679C41.4764 135.365 42.0593 136.107 42.5748 136.897C43.1572 137.636 43.6707 138.429 44.1088 139.266V139.266Z" fill="white"/>
<path d="M67.1592 124.05C67.085 124.05 67.0256 123.042 66.7584 121.893C66.4912 120.744 66.1299 119.811 66.1992 119.776C66.6075 120.398 66.8839 121.1 67.0108 121.837C67.213 122.556 67.2636 123.31 67.1592 124.05V124.05Z" fill="white"/>
<path d="M66.209 131.02C66.0374 130.291 66.0374 129.532 66.209 128.803C66.3805 129.532 66.3805 130.291 66.209 131.02V131.02Z" fill="white"/>
<path d="M99.9532 118.189C99.9136 118.254 98.8893 117.685 97.5581 117.12C96.227 116.556 95.1135 116.203 95.1333 116.112C96.0089 116.219 96.8614 116.471 97.6571 116.858C98.4882 117.172 99.2637 117.621 99.9532 118.189V118.189Z" fill="white"/>
<path d="M104.773 107.892C104.057 108.066 103.311 108.066 102.596 107.892C103.311 107.717 104.057 107.717 104.773 107.892V107.892Z" fill="white"/>
<g opacity="0.3">
<path opacity="0.3" d="M70.3116 69.8391C68.4954 72.8631 68.1243 76.5625 68.5895 80.0553C69.0546 83.5481 70.2918 86.8745 71.524 90.1657C74.3611 97.7593 77.1983 105.353 80.0354 112.947C80.8569 115.159 81.713 117.417 83.2272 119.211C84.0553 120.118 85.0878 120.806 86.2354 121.215C87.383 121.624 88.6111 121.743 89.8137 121.56C87.7848 119.574 84.8652 116.787 84.7415 116.465C84.1675 114.625 84.6178 111.425 84.3654 109.525C83.9794 106.591 82.1237 103.577 80.8767 100.906C77.9076 94.5219 74.9269 88.148 71.9347 81.784C70.9004 79.5664 69.8464 77.0161 70.7569 74.728C71.1479 73.7552 71.8852 72.9085 72.0435 71.8703C72.2019 70.832 71.2815 69.5468 70.3314 69.9601" fill="black"/>
</g>
<g opacity="0.3">
<path opacity="0.3" d="M34.4396 126.761C38.0421 125.496 39.4574 121.192 40.9667 117.629C45.0179 108.066 49.0724 98.5069 53.1302 88.951C53.9714 86.9349 54.8275 84.9189 54.971 82.7618C55.1146 80.6046 54.4069 78.256 52.6749 77.001C47.1672 84.0923 41.6743 91.2895 37.7798 99.4141C35.0383 105.13 35.5678 110.089 37.1613 115.678C38.0965 118.959 34.4396 122.14 34.4396 122.603C34.4396 124.619 34.4396 125.708 34.4396 126.761Z" fill="black"/>
</g>
<path d="M47.479 53.0759C46.4645 49.7293 45.4649 46.3575 45.0344 42.8798C44.6039 39.4022 44.7622 35.7935 46.0241 32.5276C46.2121 32.0236 47.8105 28.7223 48.3301 28.7828C48.7012 28.8231 47.6967 31.9228 47.8798 32.2554C49.6217 35.4105 50.0522 39.1804 49.7107 42.7891C49.3489 46.2912 48.6054 49.7414 47.4938 53.0759" fill="#263238"/>
<path d="M66.4712 72.7827C66.5355 70.308 66.5899 68.3575 66.6097 68.3575C66.6295 68.3575 74.953 67.6318 75.626 59.23C75.9526 55.1727 75.9525 46.7559 75.8684 39.1454C75.823 35.2005 74.3216 31.4175 71.6626 28.5488C69.0036 25.68 65.3819 23.9355 61.5177 23.6623L60.721 23.6069C52.0957 23.5111 47.2016 30.92 47.3599 39.7048L46.9146 70.4492L60.3993 82.1774L66.4712 72.7827Z" fill="#FFBE9D"/>
<path d="M66.6694 68.3622C62.8561 68.0834 59.2014 66.6963 56.1389 64.3655C56.1389 64.3655 58.346 70.6655 66.6348 70.4891L66.6694 68.3622Z" fill="#EB996E"/>
<path d="M72.2218 45.4302C72.2038 45.7431 72.0664 46.0364 71.8389 46.2473C71.6114 46.4583 71.3119 46.5703 71.0044 46.5592C70.8537 46.5612 70.7042 46.5325 70.5646 46.4747C70.425 46.4169 70.2982 46.3312 70.1917 46.2227C70.0851 46.1142 70.001 45.9851 69.9442 45.8429C69.8875 45.7007 69.8593 45.5484 69.8613 45.3949C69.8804 45.0821 70.018 44.7891 70.2451 44.5775C70.4722 44.366 70.771 44.2525 71.0786 44.2609C71.2297 44.2589 71.3797 44.2878 71.5196 44.3459C71.6595 44.404 71.7866 44.4901 71.8932 44.5992C71.9998 44.7082 72.0838 44.838 72.1403 44.9807C72.1967 45.1235 72.2244 45.2764 72.2218 45.4302V45.4302Z" fill="#263238"/>
<path d="M73.8445 42.5422C73.6911 42.6883 72.8548 41.9525 71.5731 41.8668C70.2914 41.7811 69.3314 42.3708 69.2027 42.1894C69.1384 42.1188 69.3067 41.8467 69.7322 41.5745C70.3078 41.2261 70.9746 41.066 71.6424 41.1158C72.3029 41.1594 72.9325 41.4172 73.4387 41.8517C73.8445 42.1591 73.9434 42.4515 73.8445 42.5422Z" fill="#263238"/>
<path d="M60.3797 45.1731C60.363 45.4869 60.2262 45.7814 59.9986 45.9935C59.7709 46.2056 59.4707 46.3182 59.1624 46.3072C59.0115 46.3085 58.8618 46.2791 58.7222 46.2208C58.5826 46.1625 58.4558 46.0763 58.3493 45.9674C58.2429 45.8585 58.1588 45.729 58.1021 45.5865C58.0455 45.4441 58.0173 45.2915 58.0193 45.1379C58.0384 44.8255 58.1762 44.5329 58.4034 44.3222C58.6306 44.1115 58.9294 43.9991 59.2366 44.0089C59.3873 44.0069 59.5368 44.0356 59.6764 44.0934C59.816 44.1512 59.9428 44.2368 60.0494 44.3454C60.1559 44.4539 60.24 44.583 60.2968 44.7252C60.3535 44.8674 60.3817 45.0197 60.3797 45.1731Z" fill="#263238"/>
<path d="M61.4042 42.1639C61.2458 42.3101 60.4144 41.5742 59.1278 41.4886C57.8412 41.4029 56.8861 41.9926 56.7624 41.8162C56.6981 41.7406 56.8663 41.4684 57.2919 41.1962C57.867 40.8468 58.5346 40.6883 59.2021 40.7426C59.8616 40.7868 60.4905 41.0426 60.9984 41.4734C61.3646 41.8061 61.4734 42.0984 61.4042 42.1639Z" fill="#263238"/>
<path d="M65.2788 52.4104C65.2788 52.3398 66.0805 52.2541 67.3671 52.1785C67.6937 52.1785 68.0054 52.1231 68.0747 51.9013C68.1287 51.5578 68.0769 51.2056 67.9263 50.8933C67.6739 50.0718 67.4314 49.215 67.1395 48.3128C66.0508 44.6437 65.2838 41.6347 65.4322 41.5894C65.5807 41.544 66.5753 44.4874 67.664 48.1415L68.4112 50.7371C68.5855 51.1497 68.6135 51.6112 68.4904 52.0425C68.4363 52.1557 68.3573 52.2546 68.2594 52.3316C68.1615 52.4085 68.0475 52.4614 67.9263 52.486C67.7439 52.5226 67.5577 52.5362 67.372 52.5263C66.0805 52.5364 65.2788 52.486 65.2788 52.4104Z" fill="#263238"/>
<path d="M64.3188 57.5714C64.1159 57.6016 63.9872 56.2055 62.7204 55.3185C61.4536 54.4314 60.0036 54.7237 59.9789 54.5322C59.9492 54.4465 60.2808 54.2298 60.8944 54.1542C61.6995 54.0694 62.5084 54.2745 63.1806 54.7338C63.8319 55.1809 64.285 55.8704 64.4425 56.6541C64.5365 57.2085 64.4128 57.5714 64.3188 57.5714Z" fill="#263238"/>
<path d="M55.8567 38.9789C55.8567 38.606 57.1037 38.3136 58.4398 37.6181C59.7759 36.9226 60.7706 36.1061 61.0626 36.3279C61.1962 36.4387 61.112 36.8319 60.7706 37.3359C60.3042 37.9559 59.7054 38.4596 59.0195 38.8089C58.3336 39.1582 57.5786 39.3439 56.8118 39.3519C56.2179 39.3166 55.8616 39.1553 55.8567 38.9789Z" fill="#263238"/>
<path d="M68.802 36.4939C69.1385 36.2721 70.1134 36.8265 71.3653 37.144C72.6173 37.4615 73.7357 37.517 73.9089 37.8748C73.9831 38.0462 73.7456 38.2932 73.2161 38.4494C72.4926 38.6298 71.7356 38.6159 71.0189 38.4091C70.2999 38.2295 69.6396 37.8611 69.1039 37.3406C68.7278 36.9223 68.6535 36.5896 68.802 36.4939Z" fill="#263238"/>
<path d="M47.6175 45.9796C47.4839 45.909 42.0603 43.8728 41.8525 49.6336C41.6446 55.3944 47.3651 54.4216 47.38 54.2553C47.3948 54.089 47.6175 45.9796 47.6175 45.9796Z" fill="#FFBE9D"/>
<path d="M45.7075 52.0074C45.7075 52.0074 45.6085 52.0779 45.4353 52.1485C45.1987 52.2452 44.9346 52.2452 44.698 52.1485C44.1091 51.9015 43.6439 50.9187 43.6538 49.8805C43.6565 49.3861 43.7681 48.8987 43.9804 48.4541C44.0397 48.2751 44.141 48.1136 44.2755 47.9836C44.4101 47.8536 44.5738 47.7591 44.7524 47.7082C44.8665 47.6812 44.9862 47.6962 45.0904 47.7507C45.1946 47.8051 45.2765 47.8954 45.3215 48.0056C45.3908 48.1719 45.3512 48.2828 45.3809 48.2979C45.4105 48.313 45.5046 48.2021 45.4699 47.9652C45.4449 47.8217 45.3714 47.6915 45.2621 47.5973C45.1869 47.5336 45.1001 47.4857 45.0067 47.4563C44.9133 47.4269 44.8151 47.4166 44.7178 47.426C44.4841 47.4647 44.264 47.5638 44.0786 47.7138C43.8933 47.8638 43.7487 48.0597 43.6588 48.2828C43.3989 48.7721 43.2613 49.3191 43.2579 49.8754C43.2579 51.0397 43.7973 52.1434 44.6039 52.3954C44.7539 52.4458 44.9129 52.4615 45.0696 52.4414C45.2262 52.4214 45.3765 52.3661 45.5095 52.2795C45.6926 52.1485 45.7273 52.0225 45.7075 52.0074Z" fill="#EB996E"/>
<path d="M72.4689 29.4985C73.3993 28.9945 70.7369 25.91 68.5101 24.8063C65.155 23.138 59.9838 22.0191 56.8266 22.8356C53.0212 23.8184 49.8294 25.6379 47.8351 29.0853C45.8409 32.5327 45.0194 36.5899 45.0194 40.5867C45.0194 41.8064 45.1085 43.0815 45.7172 44.1147C46.4743 45.41 47.9687 46.2567 47.85 48.0107C47.7928 48.6529 47.9866 49.2922 48.3894 49.7898C49.3791 50.9389 50.6904 49.9209 51.304 48.8826C52.6105 46.6599 52.8233 43.9736 53.0014 41.388C53.1301 39.5535 53.2587 37.6786 52.7985 35.8994C52.5461 34.9267 52.1255 34.0094 51.9276 33.0266C51.8021 32.5413 51.7813 32.0341 51.8667 31.5399C51.9522 31.0457 52.1418 30.5763 52.4224 30.1638C52.5724 29.9935 52.7381 29.8382 52.9173 29.7001C53.7263 29.0231 54.6974 28.5771 55.7313 28.408C56.7651 28.2388 57.8246 28.3526 58.8011 28.7375C61.9582 29.9723 67.3521 31.8472 68.8021 30.7838C70.8903 29.2717 71.4099 28.2637 71.4099 28.2637L72.4689 29.4985Z" fill="#263238"/>
<path d="M65.4323 23.4153C65.7972 23.64 66.1204 23.9283 66.3873 24.267C67.1138 25.0207 67.7036 25.8995 68.1292 26.8627C68.5592 27.8464 68.6785 28.9418 68.4707 29.9976C68.4161 30.4415 68.2216 30.8553 67.9164 31.177C67.857 31.1467 68.0946 30.7133 68.1985 29.9472C68.31 28.9495 68.1615 27.9395 67.768 27.0189C67.3498 26.0989 66.8158 25.2382 66.1795 24.4586C65.6846 23.8386 65.3778 23.4556 65.4323 23.4153Z" fill="#455A64"/>
<path d="M69.2724 26.2878C69.3169 26.2878 69.4852 26.5449 69.599 27.0489C69.7383 27.7109 69.7249 28.3968 69.5601 29.0526C69.3952 29.7085 69.0833 30.3165 68.6489 30.8289C68.3074 31.217 68.0303 31.3733 68.0006 31.3329C67.9709 31.2926 68.827 30.3904 69.1734 28.949C69.5198 27.5075 69.1586 26.3181 69.2724 26.2878Z" fill="#455A64"/>
<path d="M61.5326 46.8767C61.3216 47.0655 61.0737 47.2064 60.8051 47.29C59.5284 47.7891 58.113 47.7747 56.8463 47.2497C56.5787 47.1634 56.3335 47.017 56.1288 46.8213C56.9933 47.1464 57.9006 47.3383 58.8208 47.3908C59.7445 47.3546 60.658 47.1815 61.5326 46.8767V46.8767Z" fill="#EB996E"/>
<path d="M59.9196 48.4187C59.9196 48.449 59.7365 48.575 59.3802 48.6808C58.9067 48.8152 58.4098 48.8411 57.9254 48.7564C57.4421 48.6752 56.9815 48.4896 56.5744 48.2121C56.2676 47.9954 56.1241 47.8089 56.1439 47.7837C56.7162 48.1081 57.3311 48.3474 57.9699 48.4943C58.6201 48.5624 59.2764 48.537 59.9196 48.4187V48.4187Z" fill="#EB996E"/>
<path d="M74.577 46.1258C74.577 46.1258 74.4335 46.4534 74.0129 46.8314C73.4538 47.3233 72.7633 47.6339 72.0299 47.7237C71.2964 47.8135 70.5533 47.6783 69.8957 47.3354C69.6156 47.218 69.3702 47.0287 69.1831 46.7861C69.2078 46.7508 69.48 46.9574 69.9749 47.1691C70.6149 47.4429 71.3144 47.5405 72.0032 47.452C72.692 47.3636 73.3458 47.0922 73.8991 46.6651C74.3395 46.3678 74.5424 46.0956 74.577 46.1258Z" fill="#EB996E"/>
<path d="M72.8895 87.2474C73.0677 87.5195 82.648 111.848 87.3887 115.85C91.8671 111.646 99.6561 104.847 92.4016 98.0835L78.8525 78.1602L72.8895 87.2474Z" fill="#FFBE9D"/>
<path d="M72.9341 87.4591C73.1469 87.7161 71.0042 82.419 70.4598 80.1964C70.1382 78.8809 68.9406 76.3458 69.6582 74.5263C70.1798 73.2478 70.7763 72.0023 71.4446 70.7967L68.4755 68.2514C68.4755 68.2514 62.2205 66.7948 61.7752 65.7314C61.3298 64.6679 61.7752 64.0934 61.7752 64.0934L66.9563 64.8191C66.9563 64.8191 59.7215 60.5452 61.9533 57.7227C61.9533 57.7227 65.4173 60.4696 67.946 60.9786L71.8652 63.1559C71.8652 63.1559 72.5778 62.8233 72.3997 60.4444C72.2215 58.0655 71.8652 57.3347 71.8652 57.3347C71.8652 57.3347 68.4012 52.6978 69.005 50.6011L69.7225 49.1496L73.8298 53.7865L74.9036 55.9688C74.9036 55.9688 74.4533 48.8724 77.0463 48.5095L77.9371 56.6996L77.0463 62.4755C77.4369 63.6472 77.7348 64.8489 77.9371 66.0691C78.1152 67.5257 78.8327 77.9838 78.8327 77.9838L80.5252 80.5038" fill="#FFBE9D"/>
<path d="M80.5351 80.4785C80.493 80.4285 80.4533 80.3764 80.4163 80.3223L80.0848 79.8535C79.7928 79.4251 79.3623 78.8103 78.8081 78.0089C78.6844 76.4515 78.5161 74.3296 78.3132 71.7038C78.2143 70.3934 78.1004 68.9519 77.9817 67.3996C77.8913 65.7339 77.5578 64.0913 76.992 62.5258V62.4805C77.2691 60.6812 77.566 58.7408 77.8777 56.7046V56.7298C77.5957 54.2097 77.2889 51.4377 76.9722 48.5447L77.1008 48.6455C76.7992 48.7198 76.5207 48.8698 76.2907 49.082C76.0608 49.2942 75.8867 49.5618 75.7845 49.8602C75.5196 50.4775 75.3381 51.1285 75.2451 51.7956C75.0469 53.1819 74.9856 54.585 75.062 55.9838L75.0917 56.5685L74.8344 56.0645C74.4979 55.3891 74.1317 54.6382 73.7606 53.8821V53.9124L69.6533 49.2755L69.8611 49.2453C69.6335 49.6989 69.391 50.1979 69.1436 50.7019C69.0296 51.2753 69.0794 51.87 69.2871 52.4155C69.4724 52.9998 69.7075 53.5664 69.9898 54.1089C70.5654 55.229 71.2273 56.3009 71.9692 57.3144V57.3144C72.2093 58.0163 72.3622 58.7461 72.4245 59.4867C72.5087 60.1315 72.5484 60.7816 72.5432 61.4321C72.5382 61.7615 72.4984 62.0893 72.4245 62.4099C72.3864 62.5748 72.3317 62.7353 72.2612 62.8887C72.1877 63.0634 72.0655 63.2124 71.9098 63.3171L71.8554 63.3474L71.7911 63.3121L67.9065 61.0693H67.9411C66.809 60.7793 65.7263 60.3171 64.7295 59.6984C63.7467 59.1223 62.8012 58.4826 61.8989 57.7832H62.0721C61.8254 58.0839 61.6843 58.4599 61.6713 58.8516C61.6782 59.2455 61.7711 59.6329 61.9435 59.9857C62.3111 60.6913 62.791 61.3299 63.3637 61.8757C64.4813 62.952 65.7128 63.8986 67.0355 64.6981L67.5304 64.9955L66.9662 64.9199L61.7851 64.184L61.889 64.1437C61.7999 64.3036 61.7426 64.4799 61.7205 64.6624C61.6985 64.8449 61.712 65.03 61.7604 65.2071C61.797 65.3826 61.8569 65.5522 61.9385 65.7112C62.0485 65.854 62.1846 65.9738 62.3394 66.064C62.9919 66.434 63.68 66.7346 64.393 66.9611C65.7984 67.4651 67.184 67.8179 68.5201 68.1455H68.5448L71.4842 70.6958L71.5436 70.7462L71.504 70.8167C70.876 71.9468 70.3093 73.1111 69.8067 74.3045C69.3118 75.4233 69.5147 76.633 69.7671 77.6662C70.0195 78.6994 70.4104 79.657 70.6183 80.5642C70.8261 81.4714 71.1477 82.2577 71.3952 82.9784C71.89 84.4098 72.3057 85.5236 72.5828 86.2897C72.7164 86.6677 72.8203 86.955 72.8797 87.1515C72.9067 87.2237 72.9282 87.2978 72.9441 87.3733C72.9486 87.3949 72.9486 87.4172 72.9441 87.4388C72.9441 87.4388 72.9441 87.4388 72.9441 87.4388C72.8424 87.0532 72.7083 86.6771 72.5432 86.3149C72.2562 85.5639 71.8306 84.4602 71.311 83.0237C71.0537 82.3081 70.7717 81.5117 70.5094 80.6096C70.2471 79.7074 69.9156 78.7699 69.6384 77.7115C69.4873 77.1653 69.3927 76.6045 69.3564 76.0382C69.3179 75.425 69.4248 74.8113 69.6681 74.249C70.1653 73.0409 70.7304 71.8629 71.3605 70.721V70.8369L68.3914 68.3169H68.436C67.085 67.9943 65.6994 67.6264 64.2792 67.1476C63.5494 66.9153 62.8447 66.608 62.176 66.2303C61.9938 66.1258 61.8353 65.9832 61.7109 65.812C61.6112 65.6257 61.5394 65.4252 61.4981 65.2172C61.4411 65.0071 61.4271 64.7873 61.4569 64.5714C61.4867 64.3556 61.5596 64.1482 61.6713 63.9623L61.701 63.9119H61.7703L66.9514 64.6376L66.8772 64.8594C65.5367 64.052 64.2886 63.0952 63.1559 62.0067C62.5553 61.4437 62.0533 60.7807 61.6713 60.0461C61.4775 59.6607 61.3758 59.2342 61.3744 58.8012C61.3881 58.3528 61.5483 57.9218 61.8297 57.5765L61.9039 57.4858L62.0029 57.5563C62.8957 58.2485 63.8312 58.8815 64.8037 59.4514C65.7787 60.0526 66.8361 60.5028 67.9411 60.787V60.787L71.8603 62.9845H71.7465C71.8465 62.9051 71.9249 62.801 71.9742 62.6821C72.039 62.547 72.0888 62.405 72.1226 62.2587C72.1892 61.9541 72.2257 61.6434 72.2315 61.3313C72.2358 60.6942 72.1961 60.0576 72.1127 59.4262C72.0507 58.7179 71.9079 58.0193 71.6871 57.3447C70.9318 56.3192 70.2583 55.2338 69.6731 54.0989C69.3845 53.5428 69.1428 52.9628 68.9506 52.3651C68.7293 51.7682 68.6812 51.1191 68.812 50.4952V50.4952L69.5296 49.0387L69.6137 48.8723L69.7374 49.0134L73.8397 53.6503L74.9086 55.8326L74.681 55.8982C74.6028 54.4806 74.6675 53.0586 74.874 51.6544C74.9705 50.9599 75.1586 50.2818 75.4332 49.6384C75.5723 49.3157 75.7686 49.0219 76.0122 48.7715C76.2593 48.5137 76.5826 48.3456 76.9326 48.2927H77.0464V48.4137C77.3582 51.3067 77.6551 54.0636 77.9272 56.5987V56.629C77.6056 58.645 77.3037 60.6056 77.0217 62.4049V62.3595C77.2988 63.2096 77.5297 64.0496 77.7145 64.8795C77.8069 65.2834 77.8763 65.6923 77.9223 66.1043C77.952 66.5075 77.9767 66.9056 78.0064 67.2937C78.1202 68.8511 78.2242 70.2926 78.3182 71.608C78.5013 74.2339 78.6547 76.3608 78.7635 77.9182L80.0106 79.783L80.3273 80.287C80.4016 80.345 80.4711 80.409 80.5351 80.4785Z" fill="#EB996E"/>
<path d="M74.3396 73.3167C73.7134 73.1144 73.133 72.7871 72.6323 72.354C72.0723 71.9834 71.6465 71.4365 71.4199 70.7966C71.8485 71.2757 72.3063 71.7269 72.7907 72.1474C73.3328 72.5002 73.8504 72.8909 74.3396 73.3167V73.3167Z" fill="#EB996E"/>
<path d="M72.1573 79.7326C72.0184 79.3899 71.93 79.0281 71.895 78.6591C71.6129 76.8875 71.8062 75.0712 72.4542 73.4023C72.5658 73.0418 72.7328 72.7015 72.949 72.3943C73.0381 72.4245 72.3206 73.9617 72.0979 76.003C71.8752 78.0442 72.2513 79.7225 72.1573 79.7326Z" fill="#EB996E"/>
<path d="M75.3837 68.06C74.9731 67.8855 74.5775 67.6765 74.201 67.435C73.2652 66.9143 72.3002 66.4498 71.3111 66.0439C70.3229 65.6375 69.3033 65.3155 68.2628 65.0813C67.8245 65.008 67.3901 64.9121 66.9613 64.794C67.4091 64.7645 67.8588 64.7984 68.2974 64.8948C69.3622 65.0805 70.4042 65.383 71.4051 65.797C72.405 66.2076 73.3699 66.7015 74.2901 67.2737C74.6821 67.4937 75.0489 67.7574 75.3837 68.06V68.06Z" fill="#EB996E"/>
<path d="M76.9674 65.4191C76.6823 65.4124 76.4 65.3596 76.1311 65.2628C75.4684 65.0876 74.8185 64.8653 74.1863 64.5975C73.2781 64.251 72.4396 63.7386 71.712 63.0855C71.7566 63.015 72.8354 63.7508 74.2853 64.3758C75.7352 65.0007 76.9921 65.3334 76.9674 65.4191Z" fill="#EB996E"/>
<path d="M77.0565 62.4757C76.8379 62.2089 76.6701 61.903 76.5616 61.5735C76.2492 60.8063 75.9783 60.0223 75.7501 59.2249C75.4779 58.2975 75.2552 57.4508 75.0919 56.8359C74.9792 56.509 74.8996 56.1712 74.8544 55.8279C75.0406 56.1173 75.1793 56.4356 75.2651 56.7704C75.4729 57.3701 75.7253 58.2118 75.9975 59.1392C76.2696 60.0666 76.522 60.9032 76.7348 61.4979C76.8623 61.8166 76.9697 62.1432 77.0565 62.4757V62.4757Z" fill="#EB996E"/>
<path d="M50.176 85.4733C51.0065 85.037 51.7206 84.4017 52.2568 83.6221C52.7929 82.8425 53.1351 81.9419 53.254 80.9978C53.6202 77.7923 53.9121 73.9115 53.9121 73.9115C54.2867 73.2686 54.6063 72.5941 54.8672 71.8954C55.0107 71.2957 63.1065 66.6739 63.1065 66.6739C63.1065 66.6739 63.3935 65.419 61.0182 65.555C58.6429 65.6911 54.2041 67.8684 54.2041 67.8684L55.5253 63.8364C56.9159 62.4579 58.1478 60.9225 59.1971 59.26C59.4842 58.7506 59.5836 58.1537 59.4775 57.5764C59.3713 56.999 59.0667 56.4792 58.6182 56.11L58.4004 55.9336C58.4004 55.9336 58.4004 54.5123 57.6483 54.2149C57.6483 54.2149 51.423 57.7984 51.2152 58.247C51.0073 58.6955 54.1447 53.3984 50.1859 52.2795L47.8452 58.6955L46.905 61.0039C46.905 61.0039 46.5091 65.0914 46.3607 66.432C46.2122 67.7727 45.5738 77.4949 44.693 78.9112" fill="#FFBE9D"/>
<path d="M44.683 78.9115L44.8017 78.6091C44.9048 78.3133 44.9858 78.0101 45.0442 77.7019C45.2174 76.8904 45.3956 75.6859 45.5688 74.1184C45.742 72.551 45.9201 70.6559 46.0983 68.4484C46.2764 66.2408 46.5387 63.7409 46.796 60.9941V60.9639L47.6076 58.9479C47.8847 58.2574 48.1024 57.5366 48.3993 56.8058L50.062 52.2295L50.1016 52.1287L50.2055 52.1589C50.7794 52.3006 51.2973 52.6171 51.6901 53.0661C52.0757 53.5547 52.2853 54.163 52.2839 54.7898C52.2879 55.4092 52.1943 56.0251 52.0068 56.6143C51.9182 56.9127 51.8124 57.2055 51.6901 57.4913C51.6307 57.6374 51.5664 57.7786 51.4971 57.9197L51.3932 58.1314L51.3338 58.2372L51.3041 58.2926V58.3229C51.1458 58.4237 51.0319 58.0507 51.0963 58.1969V58.1717C51.2013 58.0274 51.3302 57.9029 51.4773 57.8038L51.8633 57.5366C52.1206 57.3586 52.3829 57.1906 52.6501 57.0326C53.1796 56.7 53.719 56.3673 54.2633 56.0246C55.352 55.3526 56.4638 54.6974 57.5987 54.059L57.6531 54.0237L57.7125 54.0489C57.87 54.1295 58.0091 54.243 58.1208 54.3819C58.2325 54.5208 58.3142 54.6821 58.3607 54.8553C58.4719 55.1799 58.5336 55.5198 58.5438 55.8633L58.4993 55.7625C58.818 55.9956 59.0887 56.2902 59.296 56.6294C59.5074 56.9893 59.6312 57.3954 59.6572 57.8138C59.6774 58.1435 59.6337 58.4741 59.5286 58.7866C59.4192 59.0887 59.2746 59.3763 59.0981 59.6434C58.7672 60.1656 58.4105 60.6702 58.0292 61.1554C57.2813 62.1058 56.48 63.0112 55.6291 63.8669L55.6588 63.8115C55.2135 65.179 54.773 66.5231 54.3376 67.8436L54.1644 67.6873C55.7067 66.9359 57.3011 66.3008 58.9348 65.7872C59.7236 65.5333 60.5426 65.3891 61.3694 65.3588C61.785 65.3461 62.1989 65.4181 62.5868 65.5705C62.7855 65.6575 62.9568 65.7988 63.0816 65.9787C63.1466 66.073 63.1928 66.1794 63.2174 66.2918C63.242 66.4042 63.2446 66.5205 63.2251 66.6339V66.6793L63.1757 66.7095C61.221 67.8284 59.3752 68.912 57.6729 69.9604C56.8267 70.4946 55.9953 71.0037 55.2679 71.5631C55.18 71.6305 55.0973 71.7046 55.0205 71.7849C54.9809 71.8403 54.9809 71.8202 54.9561 71.9008C54.9314 71.9814 54.9215 72.0167 54.9017 72.0722C54.8204 72.2887 54.7279 72.5007 54.6246 72.7072C54.4266 73.1205 54.2188 73.5086 54.006 73.8866V73.8513C53.813 75.832 53.6398 77.6213 53.5112 79.1887C53.4716 79.5818 53.4369 79.9598 53.3973 80.3227C53.3739 80.6746 53.3293 81.0247 53.2637 81.3711C53.1464 81.9786 52.9324 82.5625 52.6303 83.0998C52.2064 83.8349 51.6347 84.4704 50.9528 84.9646C50.7766 85.0915 50.5932 85.2077 50.4035 85.3124C50.3392 85.3498 50.2712 85.3802 50.2006 85.4031C50.2006 85.4031 50.2649 85.3678 50.3886 85.2872C50.5735 85.175 50.7519 85.0521 50.9231 84.9193C51.5859 84.4177 52.1387 83.7808 52.5462 83.0494C52.8353 82.5179 53.0391 81.9429 53.1499 81.3459C53.2081 81.0021 53.2494 80.6556 53.2736 80.3076C53.3033 79.9447 53.338 79.5667 53.3726 79.1736C53.5112 77.6061 53.6695 75.8169 53.8675 73.8362C54.0753 73.4632 54.2831 73.0701 54.4761 72.6669C54.5702 72.4653 54.6642 72.2586 54.7384 72.047C54.7384 71.9915 54.778 71.9411 54.7928 71.8857C54.8098 71.816 54.8438 71.7518 54.8918 71.6992C54.9764 71.6102 55.0674 71.5276 55.164 71.4522C55.9112 70.8676 56.7327 70.3636 57.5789 69.8243C59.2812 68.7608 61.127 67.6772 63.0816 66.5483L63.0272 66.6239C63.0423 66.4501 62.9992 66.2763 62.9048 66.1307C62.8105 65.9852 62.6704 65.8765 62.5076 65.8225C62.1481 65.6889 61.7667 65.6272 61.3843 65.641C60.5805 65.6715 59.7847 65.814 59.0189 66.0644C57.3983 66.5747 55.8171 67.2065 54.2881 67.9544L54.0258 68.0804L54.1149 67.8032L55.4312 63.7712V63.7409H55.4559C56.2985 62.8935 57.0917 61.9965 57.8312 61.0546C58.2102 60.5712 58.5621 60.0664 58.8853 59.5426C59.0513 59.2946 59.1876 59.0273 59.2911 58.7462C59.3807 58.4633 59.4193 58.1662 59.4049 57.8693C59.3819 57.4916 59.2699 57.125 59.0783 56.8008C58.8843 56.4916 58.634 56.223 58.3409 56.0095L58.2964 55.9742V55.9087C58.2859 55.5862 58.2293 55.267 58.1282 54.9612C58.0935 54.8242 58.0317 54.6958 57.9466 54.584C57.8615 54.4722 57.7549 54.3793 57.6333 54.311H57.7471C56.6155 54.9595 55.5038 55.613 54.4118 56.2716C53.8675 56.5992 53.3281 56.9268 52.7986 57.2796C52.5363 57.4459 52.274 57.6173 52.0217 57.7836L51.6406 58.0457C51.5329 58.1222 51.4334 58.21 51.3437 58.3078C51.3437 58.3078 51.314 58.2826 51.2695 58.2725C51.2616 58.2758 51.2532 58.2775 51.2447 58.2775C51.2362 58.2775 51.2278 58.2758 51.22 58.2725L51.1705 58.2271C51.121 58.1868 51.1309 58.2271 51.1309 58.2271L51.1606 58.1767L51.215 58.081L51.314 57.8743C51.3833 57.7382 51.4427 57.5971 51.5021 57.461C51.6206 57.1812 51.7246 56.8952 51.8138 56.6042C51.9945 56.0414 52.0847 55.4525 52.081 54.8604C52.0829 54.2897 51.8944 53.7353 51.5466 53.2879C51.1793 52.8741 50.6982 52.5826 50.166 52.4512L50.3095 52.3807C49.7255 53.9565 49.1664 55.4803 48.6319 56.952C48.3548 57.6778 48.1074 58.4035 47.8302 59.089L47.0088 61.105V61.0748C46.7366 63.8266 46.4447 66.3215 46.2715 68.524C46.0983 70.7265 45.8904 72.6366 45.6925 74.194C45.5602 75.3962 45.3669 76.5906 45.1135 77.7725C45.0472 78.0836 44.9562 78.3887 44.8413 78.6847C44.7374 78.8309 44.683 78.9115 44.683 78.9115Z" fill="#EB996E"/>
<path d="M54.5851 67.6921C54.2521 67.9888 53.8655 68.2165 53.4469 68.3625C53.0634 68.5845 52.6419 68.7299 52.2048 68.7909C52.5379 68.4942 52.9245 68.2665 53.343 68.1205C53.7265 67.8985 54.148 67.7531 54.5851 67.6921Z" fill="#EB996E"/>
<path d="M58.3904 55.8379C58.3479 56.0033 58.2812 56.1614 58.1925 56.3066C57.9764 56.7161 57.7281 57.1071 57.4502 57.4759C56.5066 58.6675 55.4635 59.7737 54.3326 60.7822C53.2328 61.7984 52.3516 63.0357 51.7445 64.416C51.2794 65.4795 51.1062 66.1851 51.0616 66.17C51.067 65.9985 51.097 65.8287 51.1507 65.666C51.2598 65.2139 51.4021 64.7708 51.5763 64.3404C52.1461 62.9065 53.0276 61.6227 54.1545 60.5856C55.2748 59.5833 56.3278 58.5056 57.3067 57.36C58.0094 56.4628 58.3508 55.8127 58.3904 55.8379Z" fill="#EB996E"/>
<path d="M51.3043 58.1362C51.1554 58.4987 50.9572 58.838 50.7154 59.1442C50.4876 59.4775 50.2794 59.8242 50.0919 60.1825C49.8742 60.6337 49.7081 61.1089 49.5971 61.5987C49.2358 62.6068 49.0725 63.5795 48.8845 64.275C48.8145 64.6559 48.6824 65.0222 48.4935 65.3586C48.5436 64.9785 48.6146 64.6016 48.7063 64.2297C48.8554 63.3127 49.0704 62.4081 49.3496 61.5231C49.463 61.0162 49.641 60.5265 49.8791 60.0666C50.0771 59.698 50.3056 59.3473 50.562 59.0182C50.785 58.7038 51.0333 58.4088 51.3043 58.1362V58.1362Z" fill="#EB996E"/>
<path d="M23.4043 104.958C23.6468 104.585 30.4015 97.9023 32.3463 95.7048C34.2911 93.5074 44.0793 80.8266 44.683 78.9114C45.2867 76.9961 50.8489 84.3748 50.8489 84.3748C50.8489 84.3748 44.0941 100.831 41.4466 105.518C38.7992 110.205 34.4593 118.924 34.4593 118.924C34.4593 118.924 27.2988 119.539 24.5128 113.617C21.7267 107.695 23.4043 104.958 23.4043 104.958Z" fill="#FFBE9D"/>
<path d="M50.1512 190.488L59.2516 213.168L31.6239 224.846C30.6936 222.089 42.7878 210.653 42.7878 210.653L36.3547 196.375L50.1512 190.488Z" fill="#C6E1F6"/>
<g opacity="0.6">
<path opacity="0.6" d="M50.8289 205.805C51.1289 205.774 51.4296 205.857 51.6728 206.038C51.9159 206.22 52.0843 206.487 52.1452 206.788C52.1846 207.09 52.1086 207.397 51.9328 207.645C51.757 207.892 51.4948 208.062 51.2001 208.118C50.8831 208.151 50.5656 208.062 50.3095 207.869C50.0533 207.676 49.8768 207.393 49.8145 207.075C49.7799 206.465 50.3489 205.734 50.9477 205.795" fill="white"/>
</g>
<g opacity="0.6">
<path opacity="0.6" d="M59.2515 213.148L58.2618 210.9L32.1484 222.936C32.1484 222.936 31.1587 223.999 31.6536 224.826L59.2515 213.148Z" fill="white"/>
</g>
<path d="M42.2781 210.678C42.3424 210.815 43.0402 210.593 43.8814 210.754C44.7227 210.915 45.3165 211.344 45.4204 211.233C45.5243 211.122 44.9948 210.421 43.9705 210.225C42.9461 210.028 42.1989 210.568 42.2781 210.678Z" fill="#263238"/>
<path d="M39.8782 213.123C39.8782 213.269 40.5809 213.259 41.2787 213.627C41.9764 213.995 42.3525 214.574 42.4861 214.514C42.6197 214.453 42.3871 213.637 41.4964 213.173C40.6057 212.71 39.8287 212.992 39.8782 213.123Z" fill="#263238"/>
<path d="M39.6701 217.352C39.8086 217.352 39.7146 216.565 39.0614 215.956C38.4082 215.346 37.656 215.321 37.6461 215.452C37.6362 215.583 38.1905 215.83 38.72 216.334C39.2495 216.838 39.5315 217.397 39.6701 217.352Z" fill="#263238"/>
<path d="M41.1845 207.261C41.2934 207.362 41.8377 206.908 42.6196 206.641C43.4015 206.374 44.1042 206.364 44.1042 206.218C44.1042 206.072 43.3569 205.82 42.4365 206.152C41.5161 206.485 41.0608 207.181 41.1845 207.261Z" fill="#263238"/>
<path d="M40.4718 203.642C40.4718 203.703 41.0607 203.562 41.8524 203.053C42.3124 202.748 42.7359 202.389 43.1143 201.984C43.3368 201.745 43.5435 201.491 43.7329 201.223C43.8502 201.07 43.9453 200.9 44.0149 200.719C44.0655 200.584 44.0696 200.436 44.0264 200.299C43.9833 200.161 43.8954 200.043 43.7774 199.963C43.6713 199.896 43.551 199.854 43.4263 199.843C43.3016 199.832 43.1761 199.85 43.0599 199.898C42.8824 199.971 42.7158 200.07 42.565 200.19C42.3005 200.389 42.0538 200.612 41.8277 200.855C41.4497 201.267 41.1374 201.736 40.9023 202.246C40.5064 203.123 40.4965 203.728 40.551 203.733C40.6054 203.738 40.7687 203.194 41.219 202.418C41.4802 201.968 41.7979 201.554 42.1642 201.188C42.3785 200.974 42.6103 200.778 42.857 200.603C43.1192 200.402 43.3518 200.291 43.4953 200.392C43.5399 200.432 43.5547 200.452 43.53 200.563C43.4763 200.696 43.4065 200.821 43.3221 200.936C42.8564 201.627 42.2889 202.241 41.6396 202.755C40.9419 203.32 40.4371 203.572 40.4718 203.642Z" fill="#263238"/>
<path d="M40.7242 203.769C40.7836 203.769 40.8479 203.164 40.5362 202.257C40.341 201.726 40.0582 201.233 39.6999 200.8C39.4883 200.541 39.253 200.303 38.9972 200.089C38.8461 199.936 38.6591 199.824 38.4538 199.765C38.2486 199.706 38.0319 199.702 37.8244 199.752C37.7022 199.807 37.5981 199.896 37.5244 200.01C37.4507 200.123 37.4105 200.256 37.4087 200.392C37.4045 200.586 37.4278 200.779 37.478 200.966C37.5546 201.302 37.685 201.622 37.8639 201.914C38.1524 202.412 38.5591 202.828 39.0466 203.123C39.8829 203.627 40.5312 203.552 40.5065 203.496C40.0714 203.299 39.6499 203.071 39.2446 202.816C38.8353 202.516 38.4971 202.127 38.2549 201.677C38.1146 201.419 38.0113 201.143 37.9481 200.855C37.8689 200.538 37.8788 200.251 38.0025 200.23C38.1262 200.21 38.4627 200.301 38.6755 200.488C39.3118 200.998 39.8205 201.654 40.1601 202.403C40.5757 203.199 40.645 203.779 40.7242 203.769Z" fill="#263238"/>
<path d="M95.2865 191.693L94.5294 216.162L124.419 217.281C124.349 214.363 109.078 207.947 109.078 207.947L110.196 192.288L95.2865 191.693Z" fill="#C6E1F6"/>
<g opacity="0.6">
<path opacity="0.6" d="M99.8988 206.283C99.6079 206.363 99.3559 206.549 99.1907 206.805C99.0256 207.062 98.9588 207.371 99.0031 207.674C99.0697 207.972 99.2458 208.233 99.4953 208.402C99.7447 208.572 100.048 208.638 100.344 208.587C100.652 208.504 100.92 208.308 101.094 208.036C101.267 207.764 101.335 207.435 101.284 207.115C101.106 206.53 100.324 206.051 99.7998 206.319" fill="white"/>
</g>
<g opacity="0.6">
<path opacity="0.6" d="M94.5294 216.162L94.6977 213.702L123.29 215.693C123.29 215.693 124.602 216.328 124.419 217.281L94.5294 216.162Z" fill="white"/>
</g>
<path d="M109.583 207.811C109.583 207.962 108.841 208.002 108.099 208.451C107.356 208.899 106.956 209.514 106.822 209.459C106.688 209.403 106.941 208.546 107.841 208.017C108.742 207.488 109.623 207.68 109.583 207.811Z" fill="#263238"/>
<path d="M112.671 209.252C112.701 209.393 112.057 209.625 111.543 210.26C111.028 210.895 110.855 211.53 110.711 211.52C110.568 211.51 110.503 210.663 111.162 209.917C111.82 209.171 112.676 209.106 112.671 209.252Z" fill="#263238"/>
<path d="M114.314 213.138C114.18 213.138 114.002 212.412 114.408 211.626C114.814 210.84 115.506 210.527 115.566 210.653C115.625 210.779 115.185 211.198 114.863 211.858C114.541 212.518 114.462 213.128 114.314 213.138Z" fill="#263238"/>
<path d="M109.474 204.217C109.41 204.348 108.747 204.116 107.92 204.147C107.094 204.177 106.436 204.414 106.367 204.283C106.297 204.152 106.936 203.643 107.911 203.628C108.885 203.612 109.524 204.101 109.474 204.217Z" fill="#263238"/>
<path d="M108.865 200.578C108.865 200.639 108.286 200.709 107.381 200.513C106.527 200.321 105.716 199.967 104.991 199.469C104.826 199.367 104.677 199.239 104.55 199.091C104.456 198.98 104.401 198.838 104.397 198.69C104.392 198.543 104.438 198.398 104.526 198.28C104.602 198.178 104.701 198.096 104.814 198.041C104.928 197.986 105.053 197.959 105.179 197.963C105.369 197.969 105.557 198.003 105.738 198.063C106.054 198.155 106.362 198.275 106.658 198.421C107.154 198.674 107.608 199.004 108.004 199.399C108.672 200.074 108.89 200.639 108.841 200.669C108.791 200.699 108.45 200.236 107.762 199.661C107.363 199.332 106.924 199.057 106.456 198.845C106.181 198.72 105.896 198.618 105.604 198.542C105.293 198.446 105.025 198.431 104.936 198.572C104.907 198.628 104.902 198.648 104.966 198.744C105.059 198.852 105.168 198.945 105.288 199.021C105.535 199.204 105.793 199.372 106.06 199.525C106.517 199.775 106.996 199.982 107.49 200.145C108.311 200.432 108.875 200.498 108.865 200.578Z" fill="#263238"/>
<path d="M108.668 200.8C108.618 200.825 108.346 200.296 108.326 199.313C108.323 198.749 108.413 198.188 108.593 197.655C108.701 197.337 108.84 197.032 109.009 196.743C109.097 196.543 109.234 196.37 109.408 196.241C109.581 196.111 109.785 196.031 109.999 196.007C110.132 196.015 110.26 196.061 110.368 196.141C110.475 196.22 110.559 196.329 110.608 196.455C110.681 196.635 110.726 196.826 110.741 197.02C110.78 197.356 110.768 197.696 110.707 198.028C110.603 198.596 110.364 199.129 110.009 199.58C109.4 200.346 108.782 200.503 108.772 200.452C108.762 200.402 109.266 200.104 109.722 199.364C109.995 198.936 110.174 198.452 110.246 197.947C110.286 197.655 110.286 197.358 110.246 197.065C110.207 196.743 110.098 196.476 109.979 196.506C109.86 196.536 109.568 196.733 109.44 196.985C109.283 197.242 109.148 197.514 109.039 197.796C108.853 198.28 108.736 198.79 108.692 199.308C108.613 200.2 108.752 200.765 108.668 200.8Z" fill="#263238"/>
<path d="M36.6715 114.469C36.6715 114.469 36.7161 114.514 36.7754 114.62C36.871 114.77 36.9538 114.929 37.0229 115.094C37.2849 115.703 37.4084 116.365 37.3841 117.029C37.3272 118.013 37.0532 118.971 36.5825 119.831C36.0174 120.879 35.3222 121.848 34.514 122.714C33.0839 124.316 31.4137 125.677 29.5654 126.746C29.0047 127.064 28.4283 127.351 27.8384 127.608C27.626 127.712 27.4038 127.793 27.1753 127.85C27.3716 127.72 27.5786 127.607 27.7939 127.512C28.1996 127.311 28.7836 127.008 29.4714 126.585C31.2716 125.478 32.9023 124.108 34.3111 122.518C35.107 121.67 35.7968 120.726 36.3647 119.705C36.8301 118.877 37.1121 117.955 37.1911 117.004C37.2276 116.363 37.135 115.722 36.919 115.119C36.7705 114.706 36.6517 114.479 36.6715 114.469Z" fill="#263238"/>
<path d="M36.2358 118.34C36.1727 118.389 36.1027 118.428 36.028 118.456C35.8301 118.56 35.625 118.649 35.4144 118.723C34.6353 119.004 33.8162 119.154 32.9896 119.166C31.6203 119.188 30.263 118.904 29.0125 118.336C27.762 117.767 26.6485 116.928 25.7499 115.875C25.2519 115.269 24.7972 114.627 24.389 113.955C24.0193 113.322 23.7 112.659 23.434 111.974C22.985 110.81 22.7404 109.575 22.7115 108.325C22.7002 107.485 22.8102 106.648 23.0381 105.84C23.0979 105.621 23.1706 105.406 23.2558 105.195C23.3103 105.049 23.3449 104.973 23.3548 104.979C23.3647 104.984 23.2707 105.296 23.1371 105.866C22.9481 106.669 22.8665 107.495 22.8946 108.32C22.9484 109.545 23.2061 110.751 23.6567 111.888C23.9224 112.557 24.2401 113.202 24.6068 113.819C25.0088 114.479 25.457 115.109 25.9478 115.704C26.9043 116.84 28.1165 117.724 29.4811 118.279C30.5935 118.741 31.7833 118.979 32.9846 118.98C33.7958 118.984 34.603 118.865 35.3797 118.627C35.9439 118.451 36.2358 118.32 36.2358 118.34Z" fill="#263238"/>
<path d="M91.0656 122.578C90.9097 122.499 90.7649 122.399 90.6351 122.281C90.3679 122.074 89.9869 121.777 89.5168 121.384C88.5864 120.608 87.2701 119.584 85.9439 118.279C85.6232 117.963 85.3224 117.626 85.0433 117.271C84.7786 116.925 84.5866 116.527 84.4791 116.102C84.3087 115.396 84.2305 114.671 84.2466 113.945C84.2487 113.459 84.2834 112.974 84.3505 112.493C84.3673 112.32 84.4072 112.151 84.4693 111.989C84.5088 111.989 84.395 112.745 84.4297 113.96C84.4371 114.666 84.5301 115.368 84.7068 116.051C84.8849 116.822 85.4936 117.468 86.127 118.128C87.4334 119.413 88.7398 120.466 89.6306 121.273C90.0858 121.676 90.4471 122.004 90.6995 122.235C90.8357 122.333 90.9588 122.448 91.0656 122.578V122.578Z" fill="#263238"/>
<path d="M95.3808 100.846C95.4426 101.078 95.4791 101.316 95.4896 101.556C95.5415 102.21 95.5415 102.868 95.4896 103.522C95.3472 105.7 94.6102 107.795 93.3618 109.57C91.8277 111.551 90.3926 113.345 89.1803 114.439C88.7084 114.877 88.2127 115.287 87.6957 115.669C87.5115 115.82 87.3105 115.948 87.0969 116.052C87.263 115.881 87.4435 115.726 87.6363 115.588C87.9877 115.296 88.4924 114.867 89.0763 114.303C90.5543 112.772 91.9236 111.137 93.1737 109.409C94.3902 107.677 95.1316 105.647 95.3214 103.527C95.3878 102.635 95.4076 101.74 95.3808 100.846V100.846Z" fill="#263238"/>
<path d="M99.1812 105.286C99.3165 104.691 99.3813 104.082 99.3742 103.471C99.3382 102.814 99.196 102.167 98.9535 101.556C98.6564 100.809 98.2079 100.134 97.6372 99.5753C96.5535 98.5983 95.2205 97.9536 93.7922 97.7155C93.1931 97.6583 92.5901 97.6583 91.991 97.7155C92.1483 97.6452 92.3151 97.5993 92.4858 97.5794C92.93 97.4987 93.383 97.4818 93.8318 97.529C95.3196 97.7212 96.7153 98.3678 97.8352 99.3838C98.9234 100.456 99.5498 101.924 99.5771 103.466C99.5797 103.925 99.5181 104.381 99.394 104.822C99.3494 104.988 99.2775 105.145 99.1812 105.286Z" fill="#263238"/>
<path d="M43.624 136.665C43.624 136.665 32.5195 126.636 27.6501 126.721C22.7808 126.807 6.79206 125.713 13.4973 148.278C20.257 171.018 32.3512 205.79 32.6828 204.545L53.5062 195.221L45.0442 162.874C45.0442 162.874 73.429 163.201 78.907 162.465C84.3851 161.73 94.6434 154.401 94.6434 154.401L93.0153 195.256L114.789 194.021C114.789 194.021 117.842 144.926 118.748 134.836C119.515 126.046 109.84 116.188 99.9433 118.415C93.5102 119.867 70.4054 136.459 70.4054 136.459L43.624 136.665Z" fill="#263238"/>
<path d="M95.3906 132.648C95.4139 133.006 95.4056 133.366 95.3659 133.722C95.3263 134.478 95.2768 135.456 95.2174 136.63C95.1085 139.085 95.0294 142.482 94.97 146.241C94.9106 150.001 94.8413 153.398 94.7127 155.858C94.6582 157.093 94.584 158.086 94.5197 158.771C94.5052 159.129 94.4589 159.485 94.3811 159.834C94.35 159.477 94.35 159.118 94.3811 158.761C94.3811 158.005 94.4306 157.027 94.4603 155.848C94.4999 153.328 94.5543 149.956 94.6087 146.231C94.6632 142.507 94.7869 139.075 94.965 136.615C95.0541 135.385 95.1432 134.392 95.2273 133.707C95.2503 133.35 95.3049 132.996 95.3906 132.648V132.648Z" fill="#455A64"/>
<path d="M94.51 151.785C94.1233 151.454 93.7982 151.054 93.55 150.606C92.876 149.574 92.351 148.449 91.9912 147.264C91.6302 146.08 91.4337 144.85 91.4073 143.61C91.366 143.102 91.4112 142.591 91.5409 142.098C91.6597 142.098 91.4914 144.447 92.3426 147.169C93.1937 149.89 94.6288 151.72 94.51 151.785Z" fill="#455A64"/>
<path d="M64.8978 160.066C64.8631 160.066 64.8136 159.512 64.6454 158.509C64.4113 157.1 64.0297 155.722 63.5072 154.396C62.7324 152.431 61.6714 150.596 60.36 148.953C58.7486 146.948 56.7748 145.276 54.5454 144.029C49.8245 141.246 45.6727 138.515 42.7729 136.378C41.3229 135.314 40.1848 134.402 39.4276 133.732C39.0466 133.404 38.7645 133.127 38.5765 132.946C38.3885 132.764 38.2895 132.658 38.2994 132.648C38.3093 132.638 38.7349 132.991 39.5217 133.621C40.3085 134.251 41.4565 135.133 42.9213 136.166C45.8508 138.238 50.0175 140.929 54.7285 143.726C57.0031 144.994 59.0094 146.707 60.6321 148.766C61.9494 150.438 63.0029 152.308 63.7546 154.31C64.2638 155.66 64.6143 157.065 64.7988 158.499C64.8529 158.886 64.8876 159.277 64.9027 159.668C64.9145 159.8 64.9129 159.934 64.8978 160.066V160.066Z" fill="#455A64"/>
<path d="M72.578 136.121C72.4864 136.448 72.3654 136.765 72.2168 137.069C71.9545 137.663 71.6032 138.54 71.2271 139.629C69.1112 145.317 68.1239 151.376 68.3223 157.456C68.3569 158.62 68.4163 159.562 68.4757 160.213C68.5235 160.546 68.5367 160.884 68.5153 161.221C68.4223 160.891 68.361 160.554 68.3322 160.213C68.2283 159.567 68.1343 158.625 68.06 157.456C67.7144 151.337 68.7047 145.216 70.9599 139.533C71.3953 138.45 71.7863 137.588 72.0881 137.013C72.222 136.7 72.3861 136.401 72.578 136.121V136.121Z" fill="#455A64"/>
<path d="M30.8271 133.183C30.9351 133.238 31.0364 133.305 31.129 133.384L31.9653 133.999C32.1435 134.14 32.3463 134.291 32.5641 134.453C32.7818 134.614 32.9897 134.841 33.2272 135.058C33.7762 135.535 34.2921 136.05 34.7711 136.6L35.6173 137.552C35.8845 137.905 36.1518 138.278 36.4388 138.661L36.8693 139.251C37.0079 139.457 37.1365 139.674 37.2701 139.891C37.5324 140.324 37.8194 140.763 38.0866 141.232C39.1949 143.287 40.1286 145.435 40.8776 147.653C41.6991 150.001 42.3226 152.289 42.857 154.366L44.307 159.91C44.7276 161.483 45.069 162.753 45.3263 163.625C45.4451 164.043 45.5342 164.381 45.6084 164.633C45.6466 164.749 45.6731 164.869 45.6876 164.99C45.633 164.881 45.5899 164.766 45.5589 164.648L45.2323 163.64C44.9453 162.778 44.5742 161.513 44.1288 159.945C43.6834 158.378 43.1935 156.498 42.6442 154.431C42.095 152.365 41.4517 150.077 40.6302 147.738C39.8884 145.535 38.9664 143.399 37.8739 141.353C37.6165 140.884 37.3345 140.45 37.0722 140.012C36.9435 139.8 36.8198 139.583 36.6813 139.377L36.2606 138.792C35.9835 138.409 35.7212 138.031 35.454 137.683L34.6326 136.726C34.1633 136.172 33.6591 135.65 33.1233 135.163C32.8907 134.947 32.6878 134.725 32.48 134.548L31.896 134.08L31.0944 133.425C30.9988 133.352 30.9094 133.271 30.8271 133.183V133.183Z" fill="#455A64"/>
<path d="M43.3965 136.459C47.3553 139.125 51.7199 139.75 56.3814 140.657C59.0734 141.161 61.8892 141.665 64.5119 140.869C70.1433 139.175 75.5867 132.649 79.2041 130.32L67.9907 126.762L43.3965 136.459Z" fill="#C6E1F6"/>
<path d="M51.3834 139.11C51.6141 138.182 51.9289 137.277 52.3236 136.408C52.6389 135.505 53.0348 134.632 53.5063 133.802C53.2724 134.73 52.9561 135.635 52.5612 136.504C52.2462 137.407 51.8521 138.279 51.3834 139.11V139.11Z" fill="white"/>
<path d="M66.2487 138.127C65.5231 137.963 64.819 137.712 64.1506 137.381C63.4535 137.127 62.7889 136.789 62.1711 136.373C63.5953 136.794 64.9682 137.377 66.2636 138.112L66.2487 138.127Z" fill="white"/>
<path d="M70.0838 131.116C69.2647 131.237 68.4353 131.269 67.6095 131.212C66.7814 131.242 65.9523 131.186 65.1353 131.046C65.9543 130.924 66.7838 130.892 67.6095 130.95C68.4377 130.92 69.2667 130.975 70.0838 131.116V131.116Z" fill="white"/>
</svg>
