<svg width="320" height="336" viewBox="0 0 320 336" fill="none" xmlns="http://www.w3.org/2000/svg">
<path fill-rule="evenodd" clip-rule="evenodd" d="M108.709 280.121C83.2415 275.986 49.4405 284.128 36.576 258.651C23.6382 233.028 47.0413 197.454 50.8882 165.612C54.3387 137.051 43.7454 106.913 57.9135 82.0349C72.265 56.8348 98.8396 46.469 122.726 39.4701C144.486 33.0944 164.569 40.7682 185.683 44.5982C210.32 49.0675 237.991 45.0858 256.257 63.6931C276.913 84.7337 291.049 116.465 290.22 151.084C289.374 186.395 274.775 223.565 251.817 249.118C230.541 272.802 200.888 274.987 173.594 280.9C151.253 285.74 130.353 283.636 108.709 280.121Z" fill="#E1E5F0"/>
<path d="M106.875 71.0686L100.863 62.3341L110.636 66.7039L110.092 53.388L117.728 62.1124L124.032 51.6946L127.075 63.5286L136.631 62.3946L130.292 72.636L140.669 79.3443L127.659 77.1217L127.229 87.9275L118.297 80.6346L108.919 88.6533L110.052 78.1196L98.26 77.1519L106.875 71.0686Z" fill="white"/>
<path d="M106.875 71.0693C106.875 71.0693 106.692 71.2104 106.326 71.4725L104.673 72.6569L98.2897 77.1929L98.26 77.0821L110.057 78.0245H110.146V78.1153C109.81 81.2703 109.434 84.8286 109.028 88.654L108.865 88.5633L118.237 80.5295L118.307 80.474L118.376 80.5295L127.308 87.8325L127.115 87.9232C127.249 84.496 127.392 80.8671 127.541 77.1123V76.9712H127.679L140.669 79.219L140.58 79.4559L130.772 73.1004L130.223 72.7476L130.114 72.677L130.183 72.5662L136.527 62.3298L136.646 62.5264L127.09 63.6553H126.986L126.957 63.5495L123.918 51.7104L124.131 51.7457C121.934 55.3678 119.831 58.8371 117.822 62.1534L117.742 62.2845L117.643 62.1736L110.018 53.4543L110.191 53.3837C110.389 58.3028 110.562 62.7532 110.72 66.6995V66.8306L110.602 66.7751L100.833 62.3853L100.903 62.2945L105.356 68.8466L106.524 70.5098C106.776 70.8828 106.895 71.0693 106.895 71.0693C106.895 71.0693 106.752 70.8778 106.489 70.5048L105.307 68.8466L100.813 62.3802L100.69 62.2038L100.883 62.2895L110.671 66.6391L110.557 66.7197C110.389 62.7733 110.201 58.323 109.993 53.3988V53.1166L110.176 53.3283L117.822 62.0476H117.643C119.643 58.7312 121.741 55.2586 123.938 51.6298L124.086 51.3828L124.156 51.66L127.209 63.489L127.075 63.3983L136.616 62.2945L136.883 62.2643L136.74 62.4911C134.668 65.8511 132.555 69.2649 130.401 72.7325L130.361 72.551L130.91 72.9039L140.738 79.2644L141.273 79.6071L140.669 79.4761L127.659 77.2433L127.803 77.1274C127.654 80.8621 127.506 84.5061 127.367 87.9333V88.1752L127.184 88.024L118.277 80.721H118.415C115.07 83.5737 111.903 86.265 109.013 88.7347L108.825 88.8909V88.6439C109.241 84.8236 109.632 81.2653 109.973 78.1102L110.052 78.206L98.26 77.198H98.0918L98.2304 77.1022L104.624 72.6266L106.296 71.4624L106.875 71.0693Z" fill="#263238"/>
<path d="M133.36 83.3314C133.36 83.3314 133.147 83.3616 132.796 83.5078C132.3 83.7231 131.882 84.0893 131.598 84.5561C131.4 84.8715 131.273 85.2279 131.227 85.5994C131.182 86.0238 131.257 86.4526 131.445 86.8342C131.637 87.2914 131.962 87.6771 132.378 87.9387C132.793 88.2002 133.277 88.3249 133.764 88.2957C134.251 88.2665 134.718 88.0848 135.1 87.7754C135.482 87.466 135.761 87.044 135.899 86.5671C136.041 86.1646 136.065 85.7284 135.968 85.3121C135.88 84.9424 135.711 84.5978 135.473 84.3041C135.137 83.8747 134.679 83.5614 134.162 83.407C133.969 83.36 133.774 83.323 133.578 83.2961H133.731C133.796 83.2916 133.86 83.2916 133.924 83.2961C134.011 83.306 134.097 83.3211 134.182 83.3415C134.727 83.474 135.215 83.7836 135.572 84.2235C135.826 84.5232 136.009 84.8785 136.107 85.2617C136.22 85.7062 136.199 86.1751 136.047 86.6074C135.89 87.0894 135.606 87.5181 135.226 87.8473C134.818 88.2026 134.311 88.4178 133.776 88.4622C133.24 88.4831 132.711 88.3295 132.266 88.0237C131.849 87.7516 131.515 87.3657 131.302 86.9098C131.104 86.4973 131.028 86.0349 131.084 85.5793C131.157 85.1092 131.349 84.6667 131.642 84.2955C131.934 83.9243 132.317 83.6371 132.751 83.4624C132.834 83.4307 132.918 83.4054 133.004 83.3868C133.065 83.3685 133.128 83.3583 133.192 83.3566C133.306 83.3264 133.36 83.3213 133.36 83.3314Z" fill="#263238"/>
<path d="M139.635 89.6817C139.635 89.6817 139.501 89.7119 139.283 89.8077C138.979 89.9487 138.722 90.1785 138.546 90.4679C138.413 90.6746 138.335 90.9127 138.32 91.1591C138.304 91.4055 138.351 91.6518 138.457 91.8741C138.585 92.1425 138.789 92.3662 139.042 92.5168C139.296 92.6675 139.587 92.7384 139.88 92.7206C140.172 92.7028 140.453 92.5971 140.687 92.4168C140.921 92.2366 141.097 91.9899 141.193 91.7078C141.272 91.4742 141.291 91.2238 141.246 90.9809C141.202 90.738 141.097 90.511 140.941 90.3217C140.734 90.055 140.453 89.8582 140.134 89.7573C139.907 89.6867 139.768 89.6917 139.768 89.6766C139.893 89.6416 140.025 89.6416 140.149 89.6766C140.498 89.7572 140.812 89.9498 141.045 90.226C141.206 90.4195 141.325 90.6465 141.391 90.8913C141.461 91.1777 141.449 91.4784 141.357 91.7582C141.261 92.0837 141.069 92.3714 140.807 92.5821C140.545 92.7928 140.226 92.9164 139.892 92.9362C139.559 92.956 139.228 92.871 138.944 92.6928C138.66 92.5145 138.436 92.2516 138.303 91.9396C138.178 91.6734 138.131 91.3756 138.17 91.0828C138.206 90.8332 138.297 90.5953 138.437 90.3873C138.631 90.0814 138.92 89.8507 139.258 89.7321C139.378 89.6852 139.507 89.668 139.635 89.6817Z" fill="#263238"/>
<path d="M116.302 65.4492L116.352 70.9933C116.355 71.2124 116.436 71.4229 116.58 71.5859C116.723 71.749 116.92 71.8536 117.134 71.8803C117.362 71.9095 117.592 71.8477 117.777 71.7077C117.961 71.5677 118.085 71.3605 118.123 71.1293L119.024 65.5853C119.032 65.4891 119.021 65.3922 118.991 65.3006C118.961 65.2089 118.913 65.1245 118.85 65.0523C118.787 64.9802 118.711 64.9218 118.625 64.8809C118.539 64.8399 118.446 64.8172 118.351 64.8142L117.025 64.7587C116.933 64.7547 116.84 64.7694 116.754 64.8021C116.667 64.8348 116.588 64.8848 116.521 64.9491C116.454 65.0134 116.4 65.0908 116.362 65.1767C116.324 65.2626 116.304 65.3552 116.302 65.4492Z" fill="#263238"/>
<path d="M118.401 75.0964C118.304 75.3458 118.137 75.5605 117.921 75.7133C117.705 75.8661 117.449 75.9502 117.186 75.955C116.923 75.9597 116.664 75.8849 116.442 75.74C116.221 75.5951 116.047 75.3866 115.942 75.1408C115.837 74.895 115.805 74.623 115.852 74.3592C115.899 74.0954 116.021 73.8515 116.204 73.6585C116.386 73.4655 116.621 73.332 116.878 73.2748C117.135 73.2177 117.403 73.2394 117.648 73.3374C117.811 73.4025 117.96 73.4996 118.086 73.6233C118.212 73.747 118.313 73.8947 118.383 74.0581C118.452 74.2214 118.49 74.3972 118.493 74.5754C118.496 74.7535 118.465 74.9306 118.401 75.0964Z" fill="#263238"/>
<path d="M120.449 65.6759L120.498 71.22C120.501 71.4402 120.582 71.6519 120.727 71.8153C120.872 71.9787 121.07 72.0825 121.285 72.107C121.513 72.139 121.744 72.0788 121.929 71.9394C122.114 71.8 122.238 71.5925 122.275 71.3611L123.176 65.8171C123.193 65.7184 123.189 65.6171 123.164 65.5201C123.139 65.4231 123.095 65.3326 123.033 65.2548C122.971 65.1769 122.893 65.1135 122.805 65.0687C122.717 65.024 122.621 64.9991 122.522 64.9955L121.191 64.9401C121.094 64.9329 120.996 64.9468 120.904 64.9809C120.812 65.0151 120.728 65.0687 120.658 65.1382C120.588 65.2077 120.533 65.2916 120.497 65.3843C120.461 65.477 120.445 65.5764 120.449 65.6759Z" fill="#263238"/>
<path d="M122.562 75.3276C122.466 75.577 122.299 75.7917 122.082 75.9445C121.866 76.0973 121.61 76.1814 121.347 76.1862C121.084 76.1909 120.825 76.1161 120.604 75.9712C120.382 75.8263 120.208 75.6178 120.103 75.372C119.998 75.1262 119.967 74.8542 120.013 74.5904C120.06 74.3266 120.182 74.0827 120.365 73.8897C120.548 73.6967 120.782 73.5632 121.04 73.506C121.297 73.4489 121.565 73.4706 121.81 73.5686C121.973 73.6337 122.121 73.7308 122.247 73.8545C122.373 73.9782 122.474 74.1259 122.544 74.2893C122.614 74.4526 122.651 74.6284 122.654 74.8066C122.658 74.9847 122.626 75.1618 122.562 75.3276Z" fill="#263238"/>
<path d="M203.03 75.2927L207.548 68.7356L200.21 72.0116L200.616 62.0172L194.885 68.5642L190.154 60.7471L187.863 69.6277L180.693 68.7809L185.453 76.467L177.659 81.5071L187.428 79.8338L187.749 87.9483L194.455 82.4697L201.496 88.4976L200.645 80.5847L209.503 79.859L203.03 75.2927Z" fill="white"/>
<path d="M203.021 75.2927L203.466 75.5901L204.728 76.462L209.528 79.8086L209.667 79.9044H209.498L200.645 80.6554L200.72 80.5596C200.982 82.9284 201.274 85.5997 201.586 88.4725L201.615 88.7194L201.427 88.5582L194.376 82.5454H194.514L187.814 88.029L187.631 88.1802V87.9382C187.527 85.3678 187.418 82.6311 187.304 79.8237L187.448 79.9447L177.679 81.618L177.056 81.7289L177.59 81.3811L184.973 76.6082L185.384 76.3411L185.344 76.5225C183.721 73.9319 182.138 71.3665 180.584 68.8465L180.44 68.6147L180.708 68.6449L187.878 69.5017L187.745 69.5975L190.036 60.7169L190.105 60.4397L190.253 60.6816L194.979 68.5088H194.801L200.541 61.9568L200.729 61.7451V62.0273C200.576 65.7217 200.433 69.0834 200.304 72.0268L200.19 71.9461L207.539 68.6903L207.732 68.6046L207.613 68.781L204.233 73.6245L203.357 74.8744L203.045 75.3028L203.322 74.8795L204.174 73.6245L207.514 68.7104L207.588 68.8012L200.254 72.1024L200.136 72.1528V72.0217C200.249 69.0582 200.383 65.7166 200.527 62.0223L200.7 62.0928L194.979 68.6449L194.88 68.7608L194.801 68.6298L190.06 60.8177L190.278 60.7824C189.541 63.6452 188.794 66.6138 187.997 69.668L187.967 69.7739H187.858L180.688 68.9272L180.807 68.7255L185.562 76.4066L185.627 76.5175L185.523 76.588L185.107 76.8552L177.729 81.6281L177.64 81.3862L187.408 79.7179H187.547V79.859C187.655 82.6663 187.764 85.4031 187.863 87.9735L187.67 87.8878L194.38 82.4143L194.455 82.3589L194.524 82.4143L201.556 88.4624L201.398 88.5531C201.091 85.6803 200.809 83.0091 200.561 80.6402V80.5495H200.645L209.503 79.849L209.454 79.9346L204.664 76.5124L203.426 75.6203C203.164 75.3986 203.021 75.2927 203.021 75.2927Z" fill="#263238"/>
<path d="M183.147 84.4956C183.147 84.4956 183.305 84.4956 183.573 84.6316C183.944 84.7952 184.258 85.0693 184.473 85.4179C184.621 85.6543 184.716 85.9211 184.75 86.1991C184.783 86.5177 184.726 86.8392 184.587 87.1265C184.441 87.4658 184.196 87.7513 183.885 87.9446C183.575 88.138 183.214 88.2298 182.85 88.2079C182.487 88.1859 182.139 88.0512 181.853 87.8218C181.568 87.5925 181.358 87.2794 181.252 86.9249C181.146 86.6241 181.127 86.2988 181.197 85.9874C181.284 85.6532 181.454 85.3473 181.691 85.0993C181.927 84.8513 182.223 84.6694 182.548 84.5712C182.825 84.4905 182.989 84.5006 182.989 84.4855C182.949 84.4811 182.909 84.4811 182.87 84.4855C182.822 84.4811 182.774 84.4811 182.726 84.4855C182.663 84.4894 182.6 84.4995 182.538 84.5157C182.192 84.6007 181.874 84.7795 181.619 85.0332C181.363 85.2869 181.18 85.6062 181.088 85.9572C181.008 86.2906 181.024 86.6404 181.133 86.9652C181.254 87.3238 181.469 87.6413 181.756 87.8825C182.061 88.152 182.443 88.3146 182.845 88.3462C183.247 88.3589 183.643 88.2445 183.978 88.0186C184.291 87.8111 184.541 87.5199 184.701 87.1769C184.852 86.8647 184.909 86.5139 184.864 86.1689C184.821 85.875 184.714 85.5944 184.552 85.3473C184.324 84.9874 183.987 84.713 183.592 84.5661C183.532 84.5404 183.469 84.5218 183.404 84.5107C183.358 84.5051 183.312 84.5051 183.266 84.5107L183.147 84.4956Z" fill="#263238"/>
<path d="M178.436 89.2685C178.436 89.2685 178.535 89.2685 178.698 89.3643C178.931 89.4679 179.125 89.6445 179.253 89.8683C179.353 90.0227 179.412 90.201 179.424 90.3857C179.436 90.5703 179.401 90.755 179.322 90.9217C179.224 91.118 179.074 91.283 178.89 91.3986C178.706 91.5142 178.494 91.5759 178.278 91.5769C178.056 91.5566 177.845 91.4716 177.669 91.3322C177.494 91.1927 177.361 91.0047 177.288 90.7906C177.227 90.6151 177.213 90.4265 177.246 90.2435C177.279 90.0606 177.358 89.8895 177.476 89.7473C177.63 89.5469 177.841 89.3992 178.08 89.324C178.253 89.2736 178.357 89.2736 178.357 89.2585C178.262 89.2364 178.164 89.2364 178.07 89.2585C177.808 89.3201 177.573 89.4648 177.397 89.6717C177.275 89.8179 177.187 89.9902 177.14 90.1757C177.078 90.3879 177.078 90.6137 177.14 90.8259C177.22 91.0655 177.366 91.2764 177.561 91.4337C177.756 91.591 177.991 91.6879 178.238 91.713C178.487 91.72 178.733 91.6526 178.945 91.5191C179.157 91.3857 179.326 91.192 179.431 90.962C179.526 90.7634 179.56 90.5405 179.53 90.3219C179.502 90.1408 179.434 89.9685 179.332 89.8179C179.185 89.5859 178.968 89.409 178.713 89.3139C178.625 89.2773 178.531 89.2618 178.436 89.2685Z" fill="#263238"/>
<path d="M195.954 71.0689L195.919 75.2471C195.916 75.4104 195.854 75.5667 195.746 75.6872C195.637 75.8077 195.49 75.8841 195.33 75.9023C195.164 75.9192 194.998 75.8722 194.865 75.7705C194.731 75.6688 194.639 75.5199 194.608 75.353L193.935 71.1949C193.922 71.1203 193.925 71.0438 193.944 70.9705C193.963 70.8972 193.997 70.8288 194.044 70.7701C194.091 70.7113 194.149 70.6635 194.216 70.6298C194.283 70.5962 194.356 70.5775 194.43 70.575L195.42 70.5347C195.49 70.5287 195.562 70.5384 195.628 70.563C195.695 70.5876 195.756 70.6266 195.807 70.6773C195.857 70.728 195.897 70.7892 195.922 70.8567C195.948 70.9243 195.958 70.9967 195.954 71.0689Z" fill="#263238"/>
<path d="M194.37 78.3165C194.444 78.5004 194.569 78.6583 194.729 78.7702C194.89 78.8821 195.08 78.9431 195.275 78.9456C195.47 78.9481 195.661 78.892 195.825 78.7842C195.989 78.6765 196.117 78.5219 196.195 78.3399C196.273 78.1579 196.296 77.9565 196.262 77.7611C196.228 77.5657 196.138 77.3849 196.003 77.2414C195.869 77.0979 195.695 76.998 195.505 76.9544C195.315 76.9107 195.117 76.9252 194.935 76.996C194.812 77.0438 194.699 77.1162 194.604 77.2088C194.509 77.3015 194.433 77.4125 194.38 77.5355C194.328 77.6585 194.3 77.7909 194.298 77.925C194.296 78.0591 194.321 78.1922 194.37 78.3165Z" fill="#263238"/>
<path d="M192.841 71.2452L192.802 75.3982C192.802 75.5639 192.742 75.7239 192.634 75.8469C192.525 75.97 192.375 76.0472 192.213 76.0635C192.044 76.0852 191.873 76.0389 191.737 75.9344C191.601 75.8299 191.511 75.6755 191.485 75.5041L190.807 71.3662C190.795 71.2917 190.799 71.2155 190.818 71.1425C190.837 71.0696 190.871 71.0016 190.918 70.943C190.965 70.8844 191.023 70.8366 191.089 70.8027C191.156 70.7688 191.228 70.7495 191.302 70.7463L192.292 70.7059C192.363 70.7032 192.434 70.7152 192.501 70.7411C192.567 70.7669 192.628 70.8062 192.679 70.8566C192.73 70.9069 192.771 70.9673 192.799 71.0341C192.827 71.1009 192.841 71.1727 192.841 71.2452Z" fill="#263238"/>
<path d="M191.258 78.4879C191.331 78.6718 191.456 78.8296 191.617 78.9416C191.778 79.0535 191.968 79.1145 192.162 79.117C192.357 79.1195 192.549 79.0634 192.712 78.9556C192.876 78.8478 193.005 78.6933 193.082 78.5113C193.16 78.3293 193.183 78.1279 193.149 77.9325C193.115 77.7371 193.025 77.5563 192.891 77.4128C192.756 77.2693 192.583 77.1694 192.393 77.1258C192.202 77.0821 192.004 77.0966 191.822 77.1674C191.699 77.2152 191.586 77.2876 191.491 77.3802C191.396 77.4729 191.32 77.5839 191.267 77.7069C191.215 77.8299 191.187 77.9623 191.185 78.0964C191.184 78.2305 191.208 78.3636 191.258 78.4879Z" fill="#263238"/>
<path d="M199.324 212.356H116.763V265.781H199.324V212.356Z" fill="#455A64"/>
<path d="M197.523 210.834H114.674C109.711 210.834 105.688 214.932 105.688 219.987V220.43C105.688 225.485 109.711 229.583 114.674 229.583H197.523C202.486 229.583 206.509 225.485 206.509 220.43V219.987C206.509 214.932 202.486 210.834 197.523 210.834Z" fill="#455A64"/>
<path d="M199.433 229.331C199.433 229.402 180.134 229.462 156.381 229.462C132.628 229.462 113.304 229.402 113.304 229.331C113.304 229.261 132.603 229.195 156.381 229.195C180.158 229.195 199.433 229.256 199.433 229.331Z" fill="#263238"/>
<path d="M127.803 266.215C127.733 266.215 127.674 258.07 127.674 248.025C127.674 237.98 127.733 229.835 127.803 229.835C127.872 229.835 127.931 237.975 127.931 248.025C127.931 258.075 127.862 266.215 127.803 266.215Z" fill="#263238"/>
<path d="M179.975 222.018C179.844 221.564 179.737 221.103 179.654 220.637C179.393 219.53 179.035 218.449 178.585 217.407C178.131 216.368 177.584 215.375 176.952 214.438C176.669 214.061 176.407 213.669 176.165 213.264C176.522 213.574 176.837 213.931 177.1 214.327C177.784 215.248 178.362 216.245 178.822 217.301C179.272 218.358 179.604 219.464 179.812 220.597C179.926 221.062 179.981 221.539 179.975 222.018Z" fill="#263238"/>
<path d="M184.409 219.216C184.364 219.216 184.181 218.677 183.741 217.865C183.164 216.811 182.412 215.867 181.519 215.073C180.622 214.286 179.599 213.661 178.495 213.223C177.644 212.896 177.08 212.79 177.09 212.719C177.225 212.71 177.36 212.722 177.491 212.755C177.852 212.817 178.208 212.908 178.555 213.027C180.879 213.827 182.801 215.527 183.904 217.759C184.07 218.093 184.207 218.44 184.315 218.798C184.37 218.93 184.402 219.072 184.409 219.216Z" fill="#263238"/>
<path d="M145.657 115.391L133.34 117.432L132.44 142.728V192.69H187.814V134.115L180.623 117.432L145.657 115.391Z" fill="#C6E1F6"/>
<path d="M133.34 117.432C133.34 117.432 123.369 122.326 121.676 133.273C119.984 144.22 115.52 156.397 114.674 158.856C113.828 161.316 111.052 171.522 115.278 175.705C119.504 179.888 121.315 179.516 123.973 179.148C126.63 178.78 131.42 174.657 133.503 172.51C136.012 169.919 134.671 165.454 134.671 165.454L133.34 117.432Z" fill="#C6E1F6"/>
<path d="M180.623 117.432C180.623 117.432 187.814 119.06 191.188 124.317C194.113 128.853 198.23 143.031 198.23 143.031C198.23 143.031 204.737 161.175 203.941 166.391C203.144 171.608 196.107 178.387 191.827 175.408C187.997 172.737 184.933 170.368 183.261 168.322C182.661 167.354 182.351 166.23 182.37 165.086L184.112 139.462L180.623 117.432Z" fill="#C6E1F6"/>
<path d="M118.119 162.299C117.789 161.908 117.579 161.428 117.515 160.918C117.267 159.701 117.393 158.436 117.876 157.294C118.137 156.662 118.525 156.092 119.014 155.621C119.437 155.243 119.976 155.028 120.538 155.011C120.907 155 121.275 155.051 121.627 155.162C121.758 155.193 121.883 155.244 121.998 155.313C121.519 155.234 121.034 155.195 120.548 155.197C120.034 155.233 119.547 155.447 119.168 155.802C118.716 156.262 118.357 156.806 118.109 157.405C117.652 158.503 117.509 159.711 117.698 160.888C117.785 161.373 117.926 161.846 118.119 162.299Z" fill="#263238"/>
<path d="M134.335 141.896C134.246 140.342 134.246 138.784 134.335 137.229C134.341 135.671 134.435 134.114 134.617 132.567C134.693 134.122 134.685 135.68 134.592 137.234C134.589 138.792 134.504 140.348 134.335 141.896Z" fill="#263238"/>
<path d="M118.851 155.862C118.851 155.938 118.356 155.862 117.782 155.978C117.208 156.094 116.792 156.346 116.758 156.286C116.723 156.225 117.094 155.847 117.747 155.716C117.931 155.658 118.124 155.641 118.315 155.667C118.505 155.692 118.688 155.759 118.851 155.862Z" fill="#263238"/>
<path d="M182.657 137.24C182.543 136.773 182.466 136.298 182.425 135.818C182.301 134.941 182.118 133.732 181.866 132.406C181.613 131.081 181.331 129.886 181.118 129.029C180.979 128.57 180.874 128.1 180.807 127.623C181.021 128.055 181.187 128.51 181.301 128.979C181.631 130.09 181.905 131.217 182.123 132.356C182.347 133.494 182.513 134.643 182.618 135.798C182.679 136.276 182.692 136.759 182.657 137.24Z" fill="#263238"/>
<path d="M172.696 169.3C172.636 169.385 172.57 169.466 172.498 169.541L171.894 170.202C171.637 170.489 171.31 170.832 170.904 171.21C170.499 171.588 170.068 172.041 169.544 172.495C169.019 172.949 168.465 173.468 167.826 173.972C167.188 174.476 166.505 175.015 165.773 175.564C164.162 176.714 162.486 177.768 160.755 178.719C159.007 179.653 157.206 180.479 155.361 181.194C154.505 181.502 153.693 181.809 152.917 182.036C152.14 182.263 151.432 182.489 150.754 182.661C150.076 182.832 149.477 182.968 148.948 183.084C148.418 183.2 147.958 183.291 147.572 183.351L146.696 183.487C146.595 183.508 146.492 183.518 146.389 183.518C146.486 183.476 146.588 183.448 146.691 183.432L147.552 183.25C147.928 183.175 148.389 183.079 148.918 182.943C149.448 182.807 150.051 182.681 150.705 182.479C151.358 182.278 152.09 182.091 152.852 181.829C153.614 181.567 154.426 181.28 155.277 180.967C158.956 179.541 162.447 177.655 165.669 175.353C166.401 174.813 167.104 174.309 167.727 173.79C168.351 173.271 168.94 172.782 169.459 172.349C169.979 171.915 170.449 171.462 170.835 171.094C171.221 170.726 171.577 170.388 171.825 170.116L172.458 169.486C172.607 169.36 172.686 169.289 172.696 169.3Z" fill="#263238"/>
<g opacity="0.3">
<path opacity="0.3" d="M195.791 161.175C195.791 161.795 195.914 162.017 196.285 162.143C196.446 162.158 196.607 162.14 196.76 162.088C196.913 162.036 197.053 161.951 197.171 161.84C197.924 161.031 198.368 159.975 198.423 158.861C198.672 156.636 198.234 154.386 197.171 152.425C197.501 153.69 197.501 155.021 197.171 156.286L195.791 161.175Z" fill="black"/>
</g>
<g opacity="0.3">
<path opacity="0.3" d="M120.509 165.806C119.969 164.294 118.574 163.286 117.851 161.84C116.995 160.146 117.658 157.304 118.841 155.862C117.149 156.956 116.861 159.461 116.797 161.336C116.711 163.232 117.314 165.095 118.49 166.567C118.726 166.876 119.036 167.119 119.39 167.273C119.569 167.341 119.763 167.354 119.949 167.312C120.135 167.27 120.305 167.174 120.439 167.036C120.552 166.854 120.617 166.645 120.629 166.43C120.642 166.215 120.6 166.001 120.509 165.806Z" fill="black"/>
</g>
<path d="M128.644 137.159C127.92 136.343 127.258 135.472 126.665 134.553C126.002 133.682 125.41 132.759 124.893 131.791C125.617 132.607 126.279 133.478 126.872 134.397C127.536 135.267 128.128 136.191 128.644 137.159Z" fill="white"/>
<path d="M125.051 147.864C124.374 148.448 123.643 148.964 122.869 149.406C122.14 149.922 121.363 150.362 120.548 150.721C121.228 150.138 121.96 149.622 122.735 149.179C123.465 148.668 124.241 148.227 125.051 147.864Z" fill="white"/>
<path d="M135.265 151.629C134.481 151.038 133.749 150.378 133.078 149.658C132.349 149.001 131.677 148.281 131.069 147.506C131.852 148.098 132.58 148.761 133.246 149.487C133.979 150.14 134.654 150.857 135.265 151.629Z" fill="white"/>
<path d="M119.885 163.957C119.976 162.815 120.236 161.693 120.657 160.63C120.657 161.205 120.568 161.777 120.395 162.324C120.308 162.892 120.136 163.442 119.885 163.957Z" fill="white"/>
<path d="M118.643 172.989C118.584 173.039 117.579 171.834 116.203 170.469C114.828 169.103 113.62 168.13 113.665 168.064C113.974 168.216 114.262 168.41 114.521 168.639C115.826 169.658 117.012 170.826 118.054 172.122C118.289 172.382 118.487 172.673 118.643 172.989Z" fill="white"/>
<path d="M124.834 170.912C124.4 171.946 123.891 172.945 123.31 173.901C122.798 174.899 122.213 175.856 121.558 176.763C121.99 175.729 122.5 174.73 123.082 173.775C123.591 172.775 124.177 171.818 124.834 170.912Z" fill="white"/>
<path d="M130.772 171.088C130.718 171.139 129.965 170.302 128.936 169.39C127.907 168.478 127.001 167.827 127.041 167.762C127.805 168.117 128.504 168.6 129.109 169.193C129.767 169.722 130.329 170.364 130.772 171.088Z" fill="white"/>
<path d="M133.84 124.332C133.355 125.22 132.795 126.063 132.167 126.852C131.61 127.7 130.982 128.497 130.292 129.236C130.776 128.349 131.334 127.506 131.96 126.716C132.519 125.868 133.148 125.071 133.84 124.332Z" fill="white"/>
<path d="M141.352 124.045C140.555 123.264 139.819 122.421 139.15 121.525C138.423 120.679 137.761 119.777 137.17 118.828C137.966 119.611 138.702 120.453 139.372 121.348C140.098 122.195 140.759 123.096 141.352 124.045Z" fill="white"/>
<path d="M142.342 140.415C141.67 139.602 141.105 138.704 140.659 137.744C140.138 136.825 139.732 135.842 139.452 134.82C139.521 134.82 140.09 136.085 140.887 137.623C141.683 139.16 142.401 140.385 142.342 140.415Z" fill="white"/>
<path d="M152.08 135.128C150.954 134.854 149.851 134.492 148.78 134.044C147.677 133.682 146.602 133.239 145.563 132.719C146.689 132.992 147.792 133.352 148.864 133.797C149.966 134.162 151.04 134.607 152.08 135.128Z" fill="white"/>
<path d="M153.797 122.321C153.832 122.387 152.996 122.926 152.046 123.697C151.095 124.468 150.388 125.179 150.333 125.123C150.747 124.487 151.274 123.934 151.887 123.495C152.445 122.985 153.094 122.586 153.797 122.321Z" fill="white"/>
<path d="M148.3 152.566C147.989 151.323 147.761 150.06 147.617 148.786C147.39 147.524 147.246 146.248 147.186 144.966C147.5 146.208 147.73 147.471 147.874 148.746C148.104 150.008 148.246 151.284 148.3 152.566Z" fill="white"/>
<path d="M146.647 160.459C145.545 159.944 144.481 159.347 143.465 158.675C142.405 158.076 141.388 157.402 140.422 156.659C141.521 157.174 142.583 157.771 143.598 158.443C144.659 159.042 145.678 159.715 146.647 160.459Z" fill="white"/>
<path d="M139.763 170.942C139.354 170.094 139.022 169.208 138.774 168.296C138.444 167.411 138.194 166.496 138.026 165.565C138.436 166.414 138.768 167.299 139.016 168.211C139.345 169.097 139.596 170.011 139.763 170.942Z" fill="white"/>
<path d="M143.371 181.385C142.332 180.963 141.328 180.457 140.367 179.873C139.367 179.372 138.406 178.794 137.492 178.145C138.529 178.568 139.532 179.073 140.491 179.657C141.492 180.158 142.455 180.736 143.371 181.385Z" fill="white"/>
<path d="M153.713 168.523C153.289 169.992 152.783 171.436 152.199 172.847C151.694 174.29 151.107 175.702 150.442 177.076C150.868 175.607 151.374 174.164 151.957 172.752C152.463 171.309 153.049 169.897 153.713 168.523Z" fill="white"/>
<path d="M161.408 162.541C161.349 162.601 160.082 161.286 158.226 160.066C156.371 158.846 154.693 158.176 154.723 158.1C155.113 158.173 155.491 158.3 155.846 158.478C157.608 159.235 159.222 160.307 160.611 161.644C160.916 161.904 161.184 162.206 161.408 162.541Z" fill="white"/>
<path d="M168.42 150.193C167.815 151.042 167.144 151.839 166.411 152.577C165.739 153.371 165.004 154.107 164.214 154.779C164.817 153.928 165.489 153.131 166.223 152.395C166.892 151.598 167.628 150.861 168.42 150.193Z" fill="white"/>
<path d="M161.408 148.6C161.329 148.6 161.101 147.284 160.493 145.757C159.884 144.23 159.167 143.101 159.231 143.056C159.883 143.819 160.387 144.701 160.715 145.656C161.131 146.583 161.366 147.582 161.408 148.6Z" fill="white"/>
<path d="M164.536 131.192C164.59 131.242 163.605 132.467 162.512 134.07C161.418 135.672 160.621 137.033 160.557 136.993C160.658 136.659 160.805 136.342 160.992 136.05C161.792 134.583 162.737 133.203 163.813 131.933C164.017 131.651 164.261 131.402 164.536 131.192Z" fill="white"/>
<path d="M162.388 126.559C161.861 125.75 161.407 124.893 161.032 123.999C160.58 123.145 160.206 122.251 159.914 121.328C160.438 122.139 160.89 122.995 161.265 123.888C161.717 124.743 162.093 125.637 162.388 126.559Z" fill="white"/>
<path d="M177.164 157.369C176.466 158.142 175.706 158.855 174.893 159.501C174.135 160.214 173.319 160.86 172.453 161.432C173.155 160.662 173.914 159.949 174.725 159.3C175.484 158.588 176.3 157.942 177.164 157.369Z" fill="white"/>
<path d="M174.472 144.164C173.477 143.977 172.5 143.7 171.553 143.338C170.579 143.063 169.631 142.704 168.717 142.264C169.71 142.455 170.685 142.732 171.632 143.091C172.606 143.368 173.556 143.727 174.472 144.164Z" fill="white"/>
<path d="M176.298 136.236C176.729 135.175 177.237 134.147 177.818 133.162C178.326 132.136 178.91 131.15 179.564 130.214C179.136 131.277 178.628 132.304 178.045 133.288C177.539 134.316 176.955 135.301 176.298 136.236Z" fill="white"/>
<path d="M182.885 122.22C181.459 122.055 180.045 121.802 178.649 121.464C177.235 121.214 175.837 120.878 174.462 120.456C175.888 120.619 177.303 120.87 178.698 121.207C180.112 121.46 181.51 121.798 182.885 122.22Z" fill="white"/>
<path d="M185.978 128.958C186.31 127.936 186.726 126.943 187.22 125.99C187.636 124.999 188.133 124.045 188.704 123.137C188.367 124.157 187.95 125.148 187.457 126.101C187.039 127.092 186.545 128.047 185.978 128.958Z" fill="white"/>
<path d="M192.772 140.732C191.756 139.93 190.792 139.062 189.887 138.132C188.927 137.263 188.024 136.33 187.185 135.339C188.201 136.14 189.163 137.009 190.065 137.94C191.028 138.808 191.932 139.741 192.772 140.732Z" fill="white"/>
<path d="M191.57 151.125C192.089 150.281 192.68 149.485 193.336 148.746C193.929 147.949 194.591 147.208 195.316 146.533C194.795 147.376 194.204 148.172 193.549 148.912C192.955 149.708 192.292 150.448 191.57 151.125Z" fill="white"/>
<path d="M182.123 173.175C182.574 171.882 183.107 170.619 183.716 169.395C184.249 168.134 184.859 166.909 185.542 165.726C185.091 167.019 184.559 168.282 183.949 169.506C183.416 170.767 182.807 171.992 182.123 173.175Z" fill="white"/>
<path d="M178.327 179.818C177.443 178.765 176.629 177.653 175.888 176.491C175.076 175.378 174.332 174.215 173.661 173.009C174.541 174.067 175.355 175.18 176.101 176.34C176.911 177.453 177.655 178.614 178.327 179.818Z" fill="white"/>
<path d="M168.698 184.384C168.35 185.364 167.921 186.311 167.416 187.217C166.987 188.163 166.482 189.072 165.907 189.933C166.253 188.952 166.682 188.003 167.188 187.096C167.62 186.153 168.125 185.246 168.698 184.384Z" fill="white"/>
<path d="M160.142 191.223C158.654 189.485 157.302 187.632 156.099 185.679C156.869 186.525 157.579 187.426 158.222 188.376C158.932 189.274 159.574 190.226 160.142 191.223Z" fill="white"/>
<path d="M142.109 190.266C141.465 189.582 140.882 188.842 140.367 188.053C139.784 187.312 139.27 186.518 138.833 185.679C139.476 186.365 140.059 187.107 140.575 187.897C141.157 188.636 141.671 189.429 142.109 190.266Z" fill="white"/>
<path d="M165.159 175.05C165.085 175.05 165.026 174.042 164.758 172.893C164.491 171.744 164.13 170.811 164.199 170.776C164.607 171.398 164.884 172.1 165.011 172.837C165.213 173.556 165.264 174.31 165.159 175.05Z" fill="white"/>
<path d="M164.209 182.02C164.037 181.291 164.037 180.532 164.209 179.803C164.38 180.532 164.38 181.291 164.209 182.02Z" fill="white"/>
<path d="M197.953 169.189C197.914 169.254 196.889 168.685 195.558 168.12C194.227 167.556 193.114 167.203 193.133 167.112C194.009 167.219 194.861 167.471 195.657 167.858C196.488 168.172 197.264 168.621 197.953 169.189Z" fill="white"/>
<path d="M202.773 158.892C202.057 159.066 201.311 159.066 200.596 158.892C201.311 158.717 202.057 158.717 202.773 158.892Z" fill="white"/>
<g opacity="0.3">
<path opacity="0.3" d="M168.312 120.839C166.495 123.863 166.124 127.563 166.589 131.055C167.055 134.548 168.292 137.875 169.524 141.166C172.361 148.759 175.198 156.353 178.035 163.947C178.857 166.159 179.713 168.417 181.227 170.211C182.055 171.118 183.088 171.806 184.235 172.215C185.383 172.624 186.611 172.743 187.814 172.56C185.785 170.574 182.865 167.787 182.741 167.465C182.167 165.625 182.618 162.425 182.365 160.525C181.979 157.591 180.124 154.577 178.877 151.906C175.908 145.522 172.927 139.148 169.935 132.784C168.9 130.566 167.846 128.016 168.757 125.728C169.148 124.755 169.885 123.909 170.044 122.87C170.202 121.832 169.281 120.547 168.331 120.96" fill="black"/>
</g>
<g opacity="0.3">
<path opacity="0.3" d="M132.44 177.761C136.042 176.496 137.457 172.192 138.967 168.629C143.018 159.066 147.072 149.507 151.13 139.951C151.971 137.935 152.828 135.919 152.971 133.762C153.115 131.605 152.407 129.256 150.675 128.001C145.167 135.092 139.674 142.29 135.78 150.414C133.038 156.13 133.568 161.089 135.161 166.678C136.097 169.959 132.44 173.14 132.44 173.603C132.44 175.619 132.44 176.708 132.44 177.761Z" fill="black"/>
</g>
<path d="M145.479 104.076C144.465 100.729 143.465 97.3575 143.034 93.8798C142.604 90.4022 142.762 86.7935 144.024 83.5276C144.212 83.0236 145.811 79.7223 146.33 79.7828C146.701 79.8231 145.697 82.9228 145.88 83.2554C147.622 86.4105 148.052 90.1804 147.711 93.7891C147.349 97.2912 146.605 100.741 145.494 104.076" fill="#263238"/>
<path d="M164.471 123.783C164.535 121.308 164.59 119.358 164.61 119.358C164.63 119.358 172.953 118.632 173.626 110.23C173.953 106.173 173.953 97.7559 173.868 90.1454C173.823 86.2005 172.322 82.4175 169.663 79.5488C167.004 76.68 163.382 74.9355 159.518 74.6623L158.721 74.6069C150.096 74.5111 145.202 81.92 145.36 90.7048L144.915 121.449L158.399 133.177L164.471 123.783Z" fill="#FFBE9D"/>
<path d="M164.669 119.362C160.856 119.083 157.201 117.696 154.139 115.365C154.139 115.365 156.346 121.666 164.635 121.489L164.669 119.362Z" fill="#EB996E"/>
<path d="M170.222 96.4302C170.204 96.7431 170.066 97.0364 169.839 97.2473C169.611 97.4583 169.312 97.5703 169.004 97.5592C168.854 97.5612 168.704 97.5325 168.565 97.4747C168.425 97.4169 168.298 97.3312 168.192 97.2227C168.085 97.1142 168.001 96.9851 167.944 96.8429C167.888 96.7007 167.859 96.5484 167.861 96.3949C167.88 96.0821 168.018 95.7891 168.245 95.5775C168.472 95.366 168.771 95.2525 169.079 95.2609C169.23 95.2589 169.38 95.2878 169.52 95.3459C169.66 95.404 169.787 95.4901 169.893 95.5992C170 95.7082 170.084 95.838 170.14 95.9807C170.197 96.1235 170.224 96.2764 170.222 96.4302Z" fill="#263238"/>
<path d="M171.844 93.5422C171.691 93.6883 170.855 92.9525 169.573 92.8668C168.291 92.7811 167.331 93.3708 167.203 93.1894C167.138 93.1188 167.307 92.8467 167.732 92.5745C168.308 92.2261 168.975 92.066 169.642 92.1158C170.303 92.1594 170.932 92.4172 171.439 92.8517C171.844 93.1591 171.943 93.4515 171.844 93.5422Z" fill="#263238"/>
<path d="M158.38 96.1731C158.363 96.4869 158.226 96.7814 157.999 96.9935C157.771 97.2056 157.471 97.3182 157.162 97.3072C157.011 97.3085 156.862 97.2791 156.722 97.2208C156.583 97.1625 156.456 97.0763 156.349 96.9674C156.243 96.8585 156.159 96.729 156.102 96.5865C156.045 96.4441 156.017 96.2915 156.019 96.1379C156.038 95.8255 156.176 95.5329 156.403 95.3222C156.631 95.1115 156.929 94.9991 157.237 95.0089C157.387 95.0069 157.537 95.0356 157.676 95.0934C157.816 95.1512 157.943 95.2368 158.049 95.3454C158.156 95.4539 158.24 95.583 158.297 95.7252C158.354 95.8674 158.382 96.0197 158.38 96.1731Z" fill="#263238"/>
<path d="M159.404 93.1639C159.246 93.3101 158.414 92.5742 157.128 92.4886C155.841 92.4029 154.886 92.9926 154.762 92.8162C154.698 92.7406 154.866 92.4684 155.292 92.1962C155.867 91.8468 156.535 91.6883 157.202 91.7426C157.862 91.7868 158.49 92.0426 158.998 92.4734C159.365 92.8061 159.473 93.0984 159.404 93.1639Z" fill="#263238"/>
<path d="M163.279 103.41C163.279 103.34 164.08 103.254 165.367 103.179C165.694 103.179 166.005 103.123 166.075 102.901C166.129 102.558 166.077 102.206 165.926 101.893C165.674 101.072 165.431 100.215 165.139 99.3128C164.051 95.6437 163.284 92.6347 163.432 92.5894C163.581 92.544 164.575 95.4874 165.664 99.1415L166.411 101.737C166.586 102.15 166.614 102.611 166.49 103.042C166.436 103.156 166.357 103.255 166.259 103.332C166.162 103.409 166.048 103.461 165.926 103.486C165.744 103.523 165.558 103.536 165.372 103.526C164.08 103.536 163.279 103.486 163.279 103.41Z" fill="#263238"/>
<path d="M162.319 108.571C162.116 108.602 161.987 107.206 160.72 106.318C159.454 105.431 158.004 105.724 157.979 105.532C157.949 105.447 158.281 105.23 158.894 105.154C159.7 105.069 160.508 105.274 161.181 105.734C161.832 106.181 162.285 106.87 162.442 107.654C162.536 108.208 162.413 108.571 162.319 108.571Z" fill="#263238"/>
<path d="M153.857 89.9789C153.857 89.606 155.104 89.3136 156.44 88.6181C157.776 87.9226 158.771 87.1061 159.063 87.3279C159.196 87.4387 159.112 87.8319 158.771 88.3359C158.304 88.9559 157.705 89.4596 157.019 89.8089C156.334 90.1582 155.579 90.3439 154.812 90.3519C154.218 90.3166 153.862 90.1553 153.857 89.9789Z" fill="#263238"/>
<path d="M166.802 87.4939C167.138 87.2721 168.113 87.8265 169.365 88.144C170.617 88.4615 171.736 88.517 171.909 88.8748C171.983 89.0462 171.746 89.2932 171.216 89.4494C170.493 89.6298 169.736 89.6159 169.019 89.4091C168.3 89.2295 167.64 88.8611 167.104 88.3406C166.728 87.9223 166.654 87.5896 166.802 87.4939Z" fill="#263238"/>
<path d="M145.617 96.9796C145.484 96.909 140.06 94.8728 139.852 100.634C139.645 106.394 145.365 105.422 145.38 105.255C145.395 105.089 145.617 96.9796 145.617 96.9796Z" fill="#FFBE9D"/>
<path d="M143.707 103.007C143.707 103.007 143.608 103.078 143.435 103.148C143.199 103.245 142.935 103.245 142.698 103.148C142.109 102.902 141.644 101.919 141.654 100.88C141.656 100.386 141.768 99.8987 141.98 99.4541C142.04 99.2751 142.141 99.1136 142.276 98.9836C142.41 98.8536 142.574 98.7591 142.752 98.7082C142.866 98.6812 142.986 98.6962 143.09 98.7507C143.195 98.8051 143.277 98.8954 143.321 99.0056C143.391 99.1719 143.351 99.2828 143.381 99.2979C143.411 99.313 143.505 99.2021 143.47 98.9652C143.445 98.8217 143.371 98.6915 143.262 98.5973C143.187 98.5336 143.1 98.4857 143.007 98.4563C142.913 98.4269 142.815 98.4166 142.718 98.426C142.484 98.4647 142.264 98.5638 142.079 98.7138C141.893 98.8638 141.749 99.0597 141.659 99.2828C141.399 99.7721 141.261 100.319 141.258 100.875C141.258 102.04 141.797 103.143 142.604 103.395C142.754 103.446 142.913 103.461 143.07 103.441C143.226 103.421 143.376 103.366 143.51 103.28C143.693 103.148 143.727 103.022 143.707 103.007Z" fill="#EB996E"/>
<path d="M170.469 80.4985C171.399 79.9945 168.737 76.91 166.51 75.8063C163.155 74.138 157.984 73.0191 154.827 73.8356C151.021 74.8184 147.829 76.6379 145.835 80.0853C143.841 83.5327 143.019 87.5899 143.019 91.5867C143.019 92.8064 143.108 94.0815 143.717 95.1147C144.474 96.41 145.969 97.2567 145.85 99.0107C145.793 99.6529 145.987 100.292 146.389 100.79C147.379 101.939 148.69 100.921 149.304 99.8826C150.61 97.6599 150.823 94.9736 151.001 92.388C151.13 90.5535 151.259 88.6786 150.799 86.8994C150.546 85.9267 150.126 85.0094 149.928 84.0266C149.802 83.5413 149.781 83.0341 149.867 82.5399C149.952 82.0457 150.142 81.5763 150.422 81.1638C150.572 80.9935 150.738 80.8382 150.917 80.7001C151.726 80.0231 152.697 79.5771 153.731 79.408C154.765 79.2388 155.825 79.3526 156.801 79.7375C159.958 80.9723 165.352 82.8472 166.802 81.7838C168.89 80.2717 169.41 79.2637 169.41 79.2637L170.469 80.4985Z" fill="#263238"/>
<path d="M163.432 74.4153C163.797 74.64 164.12 74.9283 164.387 75.267C165.114 76.0207 165.704 76.8995 166.129 77.8627C166.559 78.8464 166.679 79.9418 166.471 80.9976C166.416 81.4415 166.222 81.8553 165.916 82.177C165.857 82.1467 166.095 81.7133 166.198 80.9472C166.31 79.9495 166.162 78.9395 165.768 78.0189C165.35 77.0989 164.816 76.2382 164.179 75.4586C163.685 74.8386 163.378 74.4556 163.432 74.4153Z" fill="#455A64"/>
<path d="M167.272 77.2878C167.317 77.2878 167.485 77.5449 167.599 78.0489C167.738 78.7109 167.725 79.3968 167.56 80.0526C167.395 80.7085 167.083 81.3165 166.649 81.8289C166.307 82.217 166.03 82.3733 166.001 82.3329C165.971 82.2926 166.827 81.3904 167.173 79.949C167.52 78.5075 167.159 77.3181 167.272 77.2878Z" fill="#455A64"/>
<path d="M159.533 97.8767C159.322 98.0655 159.074 98.2064 158.805 98.29C157.528 98.7891 156.113 98.7747 154.846 98.2497C154.579 98.1634 154.333 98.017 154.129 97.8213C154.993 98.1464 155.901 98.3383 156.821 98.3908C157.744 98.3546 158.658 98.1815 159.533 97.8767Z" fill="#EB996E"/>
<path d="M157.92 99.4187C157.92 99.449 157.737 99.575 157.38 99.6808C156.907 99.8152 156.41 99.8411 155.925 99.7564C155.442 99.6752 154.981 99.4896 154.574 99.2121C154.268 98.9954 154.124 98.8089 154.144 98.7837C154.716 99.1081 155.331 99.3474 155.97 99.4943C156.62 99.5624 157.276 99.537 157.92 99.4187Z" fill="#EB996E"/>
<path d="M172.577 97.1258C172.577 97.1258 172.434 97.4534 172.013 97.8314C171.454 98.3233 170.763 98.6339 170.03 98.7237C169.296 98.8135 168.553 98.6783 167.896 98.3354C167.616 98.218 167.37 98.0287 167.183 97.7861C167.208 97.7508 167.48 97.9574 167.975 98.1691C168.615 98.4429 169.314 98.5405 170.003 98.452C170.692 98.3636 171.346 98.0922 171.899 97.6651C172.339 97.3678 172.542 97.0956 172.577 97.1258Z" fill="#EB996E"/>
<path d="M170.89 138.247C171.068 138.52 180.648 162.848 185.389 166.85C189.867 162.646 197.656 155.847 190.402 149.083L176.853 129.16L170.89 138.247Z" fill="#FFBE9D"/>
<path d="M170.934 138.459C171.147 138.716 169.004 133.419 168.46 131.196C168.138 129.881 166.941 127.346 167.658 125.526C168.18 124.248 168.776 123.002 169.445 121.797L166.475 119.251C166.475 119.251 160.221 117.795 159.775 116.731C159.33 115.668 159.775 115.093 159.775 115.093L164.956 115.819C164.956 115.819 157.722 111.545 159.953 108.723C159.953 108.723 163.417 111.47 165.946 111.979L169.865 114.156C169.865 114.156 170.578 113.823 170.4 111.444C170.222 109.065 169.865 108.335 169.865 108.335C169.865 108.335 166.401 103.698 167.005 101.601L167.723 100.15L171.83 104.786L172.904 106.969C172.904 106.969 172.453 99.8724 175.046 99.5095L175.937 107.7L175.046 113.476C175.437 114.647 175.735 115.849 175.937 117.069C176.115 118.526 176.833 128.984 176.833 128.984L178.525 131.504" fill="#FFBE9D"/>
<path d="M178.535 131.479C178.493 131.429 178.453 131.376 178.416 131.322L178.085 130.854C177.793 130.425 177.362 129.81 176.808 129.009C176.684 127.452 176.516 125.33 176.313 122.704C176.214 121.393 176.1 119.952 175.982 118.4C175.891 116.734 175.558 115.091 174.992 113.526V113.48C175.269 111.681 175.566 109.741 175.878 107.705V107.73C175.596 105.21 175.289 102.438 174.972 99.5447L175.101 99.6455C174.799 99.7198 174.521 99.8698 174.291 100.082C174.061 100.294 173.887 100.562 173.785 100.86C173.52 101.477 173.338 102.129 173.245 102.796C173.047 104.182 172.986 105.585 173.062 106.984L173.092 107.568L172.834 107.064C172.498 106.389 172.132 105.638 171.761 104.882V104.912L167.653 100.276L167.861 100.245C167.633 100.699 167.391 101.198 167.144 101.702C167.03 102.275 167.079 102.87 167.287 103.415C167.472 104 167.707 104.566 167.99 105.109C168.565 106.229 169.227 107.301 169.969 108.314C170.209 109.016 170.362 109.746 170.424 110.487C170.509 111.132 170.548 111.782 170.543 112.432C170.538 112.761 170.498 113.089 170.424 113.41C170.386 113.575 170.332 113.735 170.261 113.889C170.188 114.063 170.066 114.212 169.91 114.317L169.855 114.347L169.791 114.312L165.906 112.069H165.941C164.809 111.779 163.726 111.317 162.729 110.698C161.747 110.122 160.801 109.483 159.899 108.783H160.072C159.825 109.084 159.684 109.46 159.671 109.852C159.678 110.246 159.771 110.633 159.943 110.986C160.311 111.691 160.791 112.33 161.364 112.876C162.481 113.952 163.713 114.899 165.036 115.698L165.53 115.995L164.966 115.92L159.785 115.184L159.889 115.144C159.8 115.304 159.743 115.48 159.721 115.662C159.698 115.845 159.712 116.03 159.76 116.207C159.797 116.383 159.857 116.552 159.939 116.711C160.049 116.854 160.185 116.974 160.339 117.064C160.992 117.434 161.68 117.735 162.393 117.961C163.798 118.465 165.184 118.818 166.52 119.146H166.545L169.484 121.696L169.544 121.746L169.504 121.817C168.876 122.947 168.309 124.111 167.807 125.304C167.312 126.423 167.515 127.633 167.767 128.666C168.019 129.699 168.41 130.657 168.618 131.564C168.826 132.471 169.148 133.258 169.395 133.978C169.89 135.41 170.306 136.524 170.583 137.29C170.716 137.668 170.82 137.955 170.88 138.152C170.907 138.224 170.928 138.298 170.944 138.373C170.949 138.395 170.949 138.417 170.944 138.439C170.842 138.053 170.708 137.677 170.543 137.315C170.256 136.564 169.831 135.46 169.311 134.024C169.054 133.308 168.772 132.512 168.509 131.61C168.247 130.707 167.916 129.77 167.638 128.712C167.487 128.165 167.393 127.605 167.356 127.038C167.318 126.425 167.425 125.811 167.668 125.249C168.165 124.041 168.73 122.863 169.361 121.721V121.837L166.391 119.317H166.436C165.085 118.994 163.699 118.626 162.279 118.148C161.549 117.915 160.845 117.608 160.176 117.23C159.994 117.126 159.835 116.983 159.711 116.812C159.611 116.626 159.539 116.425 159.498 116.217C159.441 116.007 159.427 115.787 159.457 115.571C159.487 115.356 159.56 115.148 159.671 114.962L159.701 114.912H159.77L164.951 115.638L164.877 115.859C163.537 115.052 162.289 114.095 161.156 113.007C160.555 112.444 160.053 111.781 159.671 111.046C159.478 110.661 159.376 110.234 159.374 109.801C159.388 109.353 159.548 108.922 159.83 108.577L159.904 108.486L160.003 108.556C160.896 109.248 161.831 109.881 162.804 110.451C163.779 111.053 164.836 111.503 165.941 111.787L169.86 113.984H169.747C169.847 113.905 169.925 113.801 169.974 113.682C170.039 113.547 170.089 113.405 170.123 113.259C170.189 112.954 170.226 112.643 170.231 112.331C170.236 111.694 170.196 111.058 170.113 110.426C170.051 109.718 169.908 109.019 169.687 108.345C168.932 107.319 168.258 106.234 167.673 105.099C167.385 104.543 167.143 103.963 166.951 103.365C166.729 102.768 166.681 102.119 166.812 101.495L167.53 100.039L167.614 99.8723L167.737 100.013L171.84 104.65L172.909 106.833L172.681 106.898C172.603 105.481 172.667 104.059 172.874 102.654C172.971 101.96 173.159 101.282 173.433 100.638C173.572 100.316 173.769 100.022 174.012 99.7715C174.259 99.5137 174.583 99.3456 174.933 99.2927H175.046V99.4137C175.358 102.307 175.655 105.064 175.927 107.599V107.629C175.606 109.645 175.304 111.606 175.022 113.405V113.36C175.299 114.21 175.53 115.05 175.714 115.88C175.807 116.283 175.876 116.692 175.922 117.104C175.952 117.507 175.977 117.906 176.006 118.294C176.12 119.851 176.224 121.293 176.318 122.608C176.501 125.234 176.655 127.361 176.764 128.918L178.011 130.783L178.327 131.287C178.402 131.345 178.471 131.409 178.535 131.479Z" fill="#EB996E"/>
<path d="M172.34 124.317C171.713 124.114 171.133 123.787 170.632 123.354C170.072 122.983 169.647 122.436 169.42 121.797C169.849 122.276 170.306 122.727 170.791 123.147C171.333 123.5 171.85 123.891 172.34 124.317Z" fill="#EB996E"/>
<path d="M170.157 130.733C170.018 130.39 169.93 130.028 169.895 129.659C169.613 127.888 169.806 126.071 170.454 124.402C170.566 124.042 170.733 123.702 170.949 123.394C171.038 123.425 170.321 124.962 170.098 127.003C169.875 129.044 170.251 130.723 170.157 130.733Z" fill="#EB996E"/>
<path d="M173.384 119.06C172.973 118.886 172.577 118.676 172.201 118.435C171.265 117.914 170.3 117.45 169.311 117.044C168.323 116.638 167.303 116.316 166.263 116.081C165.824 116.008 165.39 115.912 164.961 115.794C165.409 115.764 165.859 115.798 166.297 115.895C167.362 116.081 168.404 116.383 169.405 116.797C170.405 117.208 171.37 117.702 172.29 118.274C172.682 118.494 173.049 118.757 173.384 119.06Z" fill="#EB996E"/>
<path d="M174.967 116.419C174.682 116.412 174.4 116.36 174.131 116.263C173.468 116.088 172.819 115.865 172.186 115.598C171.278 115.251 170.44 114.739 169.712 114.086C169.757 114.015 170.835 114.751 172.285 115.376C173.735 116.001 174.992 116.333 174.967 116.419Z" fill="#EB996E"/>
<path d="M175.056 113.476C174.838 113.209 174.67 112.903 174.562 112.574C174.249 111.806 173.978 111.022 173.75 110.225C173.478 109.298 173.255 108.451 173.092 107.836C172.979 107.509 172.9 107.171 172.854 106.828C173.041 107.117 173.179 107.436 173.265 107.77C173.473 108.37 173.725 109.212 173.997 110.139C174.27 111.067 174.522 111.903 174.735 112.498C174.862 112.817 174.97 113.143 175.056 113.476Z" fill="#EB996E"/>
<path d="M148.176 136.473C149.007 136.037 149.721 135.402 150.257 134.622C150.793 133.842 151.135 132.942 151.254 131.998C151.62 128.792 151.912 124.911 151.912 124.911C152.287 124.269 152.606 123.594 152.867 122.895C153.011 122.296 161.106 117.674 161.106 117.674C161.106 117.674 161.394 116.419 159.018 116.555C156.643 116.691 152.204 118.868 152.204 118.868L153.525 114.836C154.916 113.458 156.148 111.923 157.197 110.26C157.484 109.751 157.584 109.154 157.477 108.576C157.371 107.999 157.067 107.479 156.618 107.11L156.4 106.934C156.4 106.934 156.4 105.512 155.648 105.215C155.648 105.215 149.423 108.798 149.215 109.247C149.007 109.696 152.145 104.398 148.186 103.28L145.845 109.696L144.905 112.004C144.905 112.004 144.509 116.091 144.361 117.432C144.212 118.773 143.574 128.495 142.693 129.911" fill="#FFBE9D"/>
<path d="M142.683 129.912L142.802 129.609C142.905 129.313 142.986 129.01 143.044 128.702C143.217 127.89 143.396 126.686 143.569 125.118C143.742 123.551 143.92 121.656 144.098 119.448C144.276 117.241 144.539 114.741 144.796 111.994V111.964L145.608 109.948C145.885 109.257 146.102 108.537 146.399 107.806L148.062 103.229L148.102 103.129L148.206 103.159C148.779 103.301 149.297 103.617 149.69 104.066C150.076 104.555 150.285 105.163 150.284 105.79C150.288 106.409 150.194 107.025 150.007 107.614C149.918 107.913 149.812 108.206 149.69 108.491C149.631 108.637 149.566 108.779 149.497 108.92L149.393 109.131L149.334 109.237L149.304 109.293V109.323C149.146 109.424 149.032 109.051 149.096 109.197V109.172C149.201 109.027 149.33 108.903 149.477 108.804L149.863 108.537C150.121 108.359 150.383 108.191 150.65 108.033C151.18 107.7 151.719 107.367 152.263 107.025C153.352 106.353 154.464 105.697 155.599 105.059L155.653 105.024L155.712 105.049C155.87 105.13 156.009 105.243 156.121 105.382C156.233 105.521 156.314 105.682 156.361 105.855C156.472 106.18 156.534 106.52 156.544 106.863L156.499 106.763C156.818 106.996 157.089 107.29 157.296 107.629C157.507 107.989 157.631 108.395 157.657 108.814C157.677 109.144 157.634 109.474 157.529 109.787C157.419 110.089 157.275 110.376 157.098 110.643C156.767 111.166 156.41 111.67 156.029 112.155C155.281 113.106 154.48 114.011 153.629 114.867L153.659 114.812C153.213 116.179 152.773 117.523 152.338 118.844L152.164 118.687C153.707 117.936 155.301 117.301 156.935 116.787C157.724 116.533 158.543 116.389 159.369 116.359C159.785 116.346 160.199 116.418 160.587 116.57C160.786 116.657 160.957 116.799 161.082 116.979C161.147 117.073 161.193 117.179 161.217 117.292C161.242 117.404 161.245 117.52 161.225 117.634V117.679L161.176 117.71C159.221 118.828 157.375 119.912 155.673 120.96C154.827 121.495 153.995 122.004 153.268 122.563C153.18 122.631 153.097 122.705 153.02 122.785C152.981 122.84 152.981 122.82 152.956 122.901C152.931 122.981 152.921 123.017 152.902 123.072C152.82 123.289 152.728 123.501 152.625 123.707C152.427 124.12 152.219 124.509 152.006 124.887V124.851C151.813 126.832 151.64 128.621 151.511 130.189C151.472 130.582 151.437 130.96 151.397 131.323C151.374 131.675 151.329 132.025 151.264 132.371C151.146 132.979 150.932 133.562 150.63 134.1C150.206 134.835 149.635 135.47 148.953 135.965C148.777 136.092 148.593 136.208 148.403 136.312C148.339 136.35 148.271 136.38 148.201 136.403C148.201 136.403 148.265 136.368 148.389 136.287C148.573 136.175 148.752 136.052 148.923 135.919C149.586 135.418 150.139 134.781 150.546 134.049C150.835 133.518 151.039 132.943 151.15 132.346C151.208 132.002 151.249 131.656 151.274 131.308C151.303 130.945 151.338 130.567 151.373 130.174C151.511 128.606 151.67 126.817 151.867 124.836C152.075 124.463 152.283 124.07 152.476 123.667C152.57 123.465 152.664 123.259 152.738 123.047C152.738 122.992 152.778 122.941 152.793 122.886C152.81 122.816 152.844 122.752 152.892 122.699C152.976 122.61 153.067 122.528 153.164 122.452C153.911 121.868 154.733 121.364 155.579 120.824C157.281 119.761 159.127 118.677 161.082 117.548L161.027 117.624C161.042 117.45 160.999 117.276 160.905 117.131C160.81 116.985 160.67 116.877 160.508 116.822C160.148 116.689 159.767 116.627 159.384 116.641C158.581 116.672 157.785 116.814 157.019 117.064C155.398 117.575 153.817 118.206 152.288 118.954L152.026 119.08L152.115 118.803L153.431 114.771V114.741H153.456C154.299 113.894 155.092 112.997 155.831 112.055C156.21 111.571 156.562 111.066 156.885 110.543C157.051 110.295 157.188 110.027 157.291 109.746C157.381 109.463 157.419 109.166 157.405 108.869C157.382 108.492 157.27 108.125 157.078 107.801C156.884 107.492 156.634 107.223 156.341 107.01L156.296 106.974V106.909C156.286 106.586 156.229 106.267 156.128 105.961C156.094 105.824 156.032 105.696 155.947 105.584C155.862 105.472 155.755 105.379 155.633 105.311H155.747C154.616 105.959 153.504 106.613 152.412 107.272C151.867 107.599 151.328 107.927 150.799 108.28C150.536 108.446 150.274 108.617 150.022 108.784L149.641 109.046C149.533 109.122 149.433 109.21 149.344 109.308C149.344 109.308 149.314 109.283 149.269 109.272C149.262 109.276 149.253 109.278 149.245 109.278C149.236 109.278 149.228 109.276 149.22 109.272L149.171 109.227C149.121 109.187 149.131 109.227 149.131 109.227L149.161 109.177L149.215 109.081L149.314 108.874C149.383 108.738 149.443 108.597 149.502 108.461C149.621 108.181 149.725 107.895 149.814 107.604C149.995 107.041 150.085 106.453 150.081 105.86C150.083 105.29 149.894 104.735 149.547 104.288C149.179 103.874 148.698 103.583 148.166 103.451L148.309 103.381C147.726 104.957 147.166 106.48 146.632 107.952C146.355 108.678 146.107 109.404 145.83 110.089L145.009 112.105V112.075C144.737 114.827 144.445 117.321 144.271 119.524C144.098 121.726 143.89 123.637 143.692 125.194C143.56 126.396 143.367 127.591 143.114 128.772C143.047 129.084 142.956 129.389 142.841 129.685C142.737 129.831 142.683 129.912 142.683 129.912Z" fill="#EB996E"/>
<path d="M152.585 118.692C152.252 118.989 151.865 119.216 151.447 119.362C151.063 119.585 150.642 119.73 150.205 119.791C150.538 119.494 150.924 119.267 151.343 119.121C151.726 118.898 152.148 118.753 152.585 118.692Z" fill="#EB996E"/>
<path d="M156.39 106.838C156.348 107.003 156.281 107.161 156.192 107.307C155.976 107.716 155.728 108.107 155.45 108.476C154.507 109.667 153.463 110.774 152.333 111.782C151.233 112.798 150.352 114.036 149.745 115.416C149.279 116.479 149.106 117.185 149.062 117.17C149.067 116.998 149.097 116.829 149.151 116.666C149.26 116.214 149.402 115.771 149.576 115.34C150.146 113.906 151.028 112.623 152.154 111.586C153.275 110.583 154.328 109.506 155.307 108.36C156.009 107.463 156.351 106.813 156.39 106.838Z" fill="#EB996E"/>
<path d="M149.304 109.136C149.155 109.499 148.957 109.838 148.715 110.144C148.488 110.477 148.279 110.824 148.092 111.182C147.874 111.634 147.708 112.109 147.597 112.599C147.236 113.607 147.073 114.579 146.884 115.275C146.815 115.656 146.682 116.022 146.494 116.359C146.544 115.979 146.615 115.602 146.706 115.23C146.855 114.313 147.07 113.408 147.35 112.523C147.463 112.016 147.641 111.526 147.879 111.067C148.077 110.698 148.306 110.347 148.562 110.018C148.785 109.704 149.033 109.409 149.304 109.136Z" fill="#EB996E"/>
<path d="M121.404 155.958C121.647 155.585 128.402 148.902 130.346 146.705C132.291 144.507 142.079 131.827 142.683 129.911C143.287 127.996 148.849 135.375 148.849 135.375C148.849 135.375 142.094 151.831 139.447 156.518C136.799 161.205 132.459 169.924 132.459 169.924C132.459 169.924 125.299 170.539 122.513 164.617C119.727 158.695 121.404 155.958 121.404 155.958Z" fill="#FFBE9D"/>
<path d="M148.151 241.488L157.252 264.168L129.624 275.846C128.694 273.089 140.788 261.653 140.788 261.653L134.355 247.375L148.151 241.488Z" fill="#C6E1F6"/>
<g opacity="0.6">
<path opacity="0.6" d="M148.829 256.805C149.129 256.774 149.43 256.857 149.673 257.038C149.916 257.22 150.084 257.487 150.145 257.788C150.185 258.09 150.109 258.397 149.933 258.645C149.757 258.892 149.495 259.062 149.2 259.118C148.883 259.151 148.566 259.062 148.309 258.869C148.053 258.676 147.877 258.393 147.814 258.075C147.78 257.465 148.349 256.734 148.948 256.795" fill="white"/>
</g>
<g opacity="0.6">
<path opacity="0.6" d="M157.252 264.148L156.262 261.9L130.148 273.936C130.148 273.936 129.159 274.999 129.654 275.826L157.252 264.148Z" fill="white"/>
</g>
<path d="M140.278 261.678C140.342 261.815 141.04 261.593 141.881 261.754C142.723 261.915 143.316 262.344 143.42 262.233C143.524 262.122 142.995 261.421 141.97 261.225C140.946 261.028 140.199 261.568 140.278 261.678Z" fill="#263238"/>
<path d="M137.878 264.123C137.878 264.269 138.581 264.259 139.279 264.627C139.976 264.995 140.352 265.574 140.486 265.514C140.62 265.453 140.387 264.637 139.496 264.173C138.606 263.71 137.829 263.992 137.878 264.123Z" fill="#263238"/>
<path d="M137.67 268.352C137.809 268.352 137.715 267.565 137.061 266.956C136.408 266.346 135.656 266.321 135.646 266.452C135.636 266.583 136.19 266.83 136.72 267.334C137.249 267.838 137.532 268.397 137.67 268.352Z" fill="#263238"/>
<path d="M139.185 258.261C139.293 258.362 139.838 257.908 140.62 257.641C141.401 257.374 142.104 257.364 142.104 257.218C142.104 257.072 141.357 256.82 140.436 257.152C139.516 257.485 139.061 258.181 139.185 258.261Z" fill="#263238"/>
<path d="M138.472 254.642C138.472 254.703 139.061 254.562 139.852 254.053C140.312 253.748 140.736 253.389 141.114 252.984C141.337 252.745 141.543 252.491 141.733 252.223C141.85 252.07 141.945 251.9 142.015 251.719C142.066 251.584 142.07 251.436 142.026 251.299C141.983 251.161 141.895 251.043 141.777 250.963C141.671 250.896 141.551 250.854 141.426 250.843C141.302 250.832 141.176 250.85 141.06 250.898C140.882 250.971 140.716 251.07 140.565 251.19C140.301 251.389 140.054 251.612 139.828 251.855C139.45 252.267 139.137 252.736 138.902 253.246C138.506 254.123 138.497 254.728 138.551 254.733C138.605 254.738 138.769 254.194 139.219 253.418C139.48 252.968 139.798 252.554 140.164 252.188C140.379 251.974 140.61 251.778 140.857 251.603C141.119 251.402 141.352 251.291 141.495 251.392C141.54 251.432 141.555 251.452 141.53 251.563C141.476 251.696 141.407 251.821 141.322 251.936C140.856 252.627 140.289 253.241 139.64 253.755C138.942 254.32 138.437 254.572 138.472 254.642Z" fill="#263238"/>
<path d="M138.724 254.769C138.784 254.769 138.848 254.164 138.536 253.257C138.341 252.726 138.058 252.233 137.7 251.8C137.488 251.541 137.253 251.303 136.997 251.089C136.846 250.936 136.659 250.824 136.454 250.765C136.249 250.706 136.032 250.702 135.824 250.752C135.702 250.807 135.598 250.896 135.524 251.01C135.451 251.123 135.411 251.256 135.409 251.392C135.405 251.586 135.428 251.779 135.478 251.966C135.555 252.302 135.685 252.622 135.864 252.914C136.152 253.412 136.559 253.828 137.047 254.123C137.883 254.627 138.531 254.552 138.506 254.496C138.071 254.299 137.65 254.071 137.245 253.816C136.835 253.516 136.497 253.127 136.255 252.677C136.115 252.419 136.011 252.143 135.948 251.855C135.869 251.538 135.879 251.251 136.003 251.23C136.126 251.21 136.463 251.301 136.676 251.488C137.312 251.998 137.821 252.654 138.16 253.403C138.576 254.199 138.645 254.779 138.724 254.769Z" fill="#263238"/>
<path d="M193.287 242.693L192.529 267.162L222.419 268.281C222.349 265.363 207.078 258.947 207.078 258.947L208.196 243.288L193.287 242.693Z" fill="#C6E1F6"/>
<g opacity="0.6">
<path opacity="0.6" d="M197.899 257.283C197.608 257.363 197.356 257.549 197.191 257.805C197.026 258.062 196.959 258.371 197.003 258.674C197.07 258.972 197.246 259.233 197.495 259.402C197.745 259.572 198.048 259.638 198.344 259.587C198.652 259.504 198.92 259.308 199.094 259.036C199.267 258.764 199.335 258.435 199.284 258.115C199.106 257.53 198.324 257.051 197.8 257.319" fill="white"/>
</g>
<g opacity="0.6">
<path opacity="0.6" d="M192.529 267.162L192.698 264.702L221.29 266.693C221.29 266.693 222.602 267.328 222.419 268.281L192.529 267.162Z" fill="white"/>
</g>
<path d="M207.583 258.811C207.583 258.962 206.841 259.002 206.099 259.451C205.356 259.899 204.956 260.514 204.822 260.459C204.688 260.403 204.941 259.546 205.841 259.017C206.742 258.488 207.623 258.68 207.583 258.811Z" fill="#263238"/>
<path d="M210.671 260.252C210.701 260.393 210.057 260.625 209.543 261.26C209.028 261.895 208.855 262.53 208.711 262.52C208.568 262.51 208.503 261.663 209.162 260.917C209.82 260.171 210.676 260.106 210.671 260.252Z" fill="#263238"/>
<path d="M212.314 264.138C212.18 264.138 212.002 263.412 212.408 262.626C212.814 261.84 213.506 261.527 213.566 261.653C213.625 261.779 213.185 262.198 212.863 262.858C212.541 263.518 212.462 264.128 212.314 264.138Z" fill="#263238"/>
<path d="M207.474 255.217C207.41 255.348 206.747 255.116 205.92 255.147C205.094 255.177 204.436 255.414 204.367 255.283C204.297 255.152 204.936 254.643 205.911 254.628C206.885 254.612 207.524 255.101 207.474 255.217Z" fill="#263238"/>
<path d="M206.865 251.578C206.865 251.639 206.286 251.709 205.381 251.513C204.527 251.321 203.716 250.967 202.991 250.469C202.826 250.367 202.677 250.239 202.55 250.091C202.456 249.98 202.401 249.838 202.397 249.69C202.392 249.543 202.438 249.398 202.526 249.28C202.602 249.178 202.701 249.096 202.814 249.041C202.928 248.986 203.053 248.959 203.179 248.963C203.369 248.969 203.557 249.003 203.738 249.063C204.054 249.155 204.362 249.275 204.658 249.421C205.154 249.674 205.608 250.004 206.004 250.399C206.672 251.074 206.89 251.639 206.841 251.669C206.791 251.699 206.45 251.236 205.762 250.661C205.363 250.332 204.924 250.057 204.456 249.845C204.181 249.72 203.896 249.618 203.604 249.542C203.293 249.446 203.025 249.431 202.936 249.572C202.907 249.628 202.902 249.648 202.966 249.744C203.059 249.852 203.168 249.945 203.288 250.021C203.535 250.204 203.793 250.372 204.06 250.525C204.517 250.775 204.996 250.982 205.49 251.145C206.311 251.432 206.875 251.498 206.865 251.578Z" fill="#263238"/>
<path d="M206.668 251.8C206.618 251.825 206.346 251.296 206.326 250.313C206.323 249.749 206.413 249.188 206.593 248.655C206.701 248.337 206.84 248.032 207.009 247.743C207.097 247.543 207.234 247.37 207.408 247.241C207.581 247.111 207.785 247.031 207.999 247.007C208.132 247.015 208.26 247.061 208.368 247.141C208.475 247.22 208.559 247.329 208.608 247.455C208.681 247.635 208.726 247.826 208.741 248.02C208.78 248.356 208.768 248.696 208.707 249.028C208.603 249.596 208.364 250.129 208.009 250.58C207.4 251.346 206.782 251.503 206.772 251.452C206.762 251.402 207.266 251.104 207.722 250.364C207.995 249.936 208.174 249.452 208.246 248.947C208.286 248.655 208.286 248.358 208.246 248.065C208.207 247.743 208.098 247.476 207.979 247.506C207.86 247.536 207.568 247.733 207.44 247.985C207.283 248.242 207.148 248.514 207.039 248.796C206.853 249.28 206.736 249.79 206.692 250.308C206.613 251.2 206.752 251.765 206.668 251.8Z" fill="#263238"/>
<path d="M134.672 165.469C134.672 165.469 134.716 165.514 134.775 165.62C134.871 165.77 134.954 165.929 135.023 166.094C135.285 166.703 135.408 167.365 135.384 168.029C135.327 169.013 135.053 169.971 134.582 170.831C134.017 171.879 133.322 172.848 132.514 173.714C131.084 175.316 129.414 176.677 127.565 177.746C127.005 178.064 126.428 178.351 125.838 178.608C125.626 178.712 125.404 178.793 125.175 178.85C125.372 178.72 125.579 178.607 125.794 178.512C126.2 178.311 126.784 178.008 127.471 177.585C129.272 176.478 130.902 175.108 132.311 173.518C133.107 172.67 133.797 171.726 134.365 170.705C134.83 169.877 135.112 168.955 135.191 168.004C135.228 167.363 135.135 166.722 134.919 166.119C134.771 165.706 134.652 165.479 134.672 165.469Z" fill="#263238"/>
<path d="M134.236 169.34C134.173 169.389 134.103 169.428 134.028 169.456C133.83 169.56 133.625 169.649 133.414 169.723C132.635 170.004 131.816 170.154 130.99 170.166C129.62 170.188 128.263 169.904 127.012 169.336C125.762 168.767 124.648 167.928 123.75 166.875C123.252 166.269 122.797 165.627 122.389 164.955C122.019 164.322 121.7 163.659 121.434 162.974C120.985 161.81 120.74 160.575 120.711 159.325C120.7 158.485 120.81 157.648 121.038 156.84C121.098 156.621 121.171 156.406 121.256 156.195C121.31 156.049 121.345 155.973 121.355 155.979C121.365 155.984 121.271 156.296 121.137 156.866C120.948 157.669 120.867 158.495 120.895 159.32C120.948 160.545 121.206 161.751 121.657 162.888C121.922 163.557 122.24 164.202 122.607 164.819C123.009 165.479 123.457 166.109 123.948 166.704C124.904 167.84 126.117 168.724 127.481 169.279C128.594 169.741 129.783 169.979 130.985 169.98C131.796 169.984 132.603 169.865 133.38 169.627C133.944 169.451 134.236 169.32 134.236 169.34Z" fill="#263238"/>
<path d="M189.066 173.578C188.91 173.499 188.765 173.399 188.635 173.281C188.368 173.074 187.987 172.777 187.517 172.384C186.586 171.608 185.27 170.584 183.944 169.279C183.623 168.963 183.322 168.626 183.043 168.271C182.779 167.925 182.587 167.527 182.479 167.102C182.309 166.396 182.23 165.671 182.247 164.945C182.249 164.459 182.283 163.974 182.35 163.493C182.367 163.32 182.407 163.151 182.469 162.989C182.509 162.989 182.395 163.745 182.43 164.96C182.437 165.666 182.53 166.368 182.707 167.051C182.885 167.822 183.494 168.468 184.127 169.128C185.433 170.413 186.74 171.466 187.631 172.273C188.086 172.676 188.447 173.004 188.699 173.235C188.836 173.333 188.959 173.448 189.066 173.578Z" fill="#263238"/>
<path d="M193.381 151.846C193.443 152.078 193.479 152.316 193.49 152.556C193.541 153.21 193.541 153.868 193.49 154.522C193.347 156.7 192.61 158.795 191.362 160.57C189.828 162.551 188.393 164.345 187.18 165.439C186.708 165.877 186.213 166.287 185.696 166.669C185.511 166.82 185.311 166.948 185.097 167.052C185.263 166.881 185.443 166.726 185.636 166.588C185.988 166.296 186.492 165.867 187.076 165.303C188.554 163.772 189.924 162.137 191.174 160.409C192.39 158.677 193.132 156.647 193.321 154.527C193.388 153.635 193.408 152.74 193.381 151.846Z" fill="#263238"/>
<path d="M197.181 156.286C197.317 155.691 197.381 155.082 197.374 154.471C197.338 153.814 197.196 153.167 196.954 152.556C196.656 151.809 196.208 151.134 195.637 150.575C194.554 149.598 193.221 148.954 191.792 148.716C191.193 148.658 190.59 148.658 189.991 148.716C190.148 148.645 190.315 148.599 190.486 148.579C190.93 148.499 191.383 148.482 191.832 148.529C193.32 148.721 194.715 149.368 195.835 150.384C196.923 151.456 197.55 152.924 197.577 154.466C197.58 154.925 197.518 155.381 197.394 155.822C197.349 155.988 197.277 156.145 197.181 156.286Z" fill="#263238"/>
<path d="M141.624 187.665C141.624 187.665 130.519 177.636 125.65 177.721C120.781 177.807 104.792 176.713 111.497 199.278C118.257 222.018 130.351 256.79 130.683 255.545L151.506 246.221L143.044 213.874C143.044 213.874 171.429 214.201 176.907 213.465C182.385 212.73 192.643 205.401 192.643 205.401L191.015 246.256L212.789 245.021C212.789 245.021 215.842 195.926 216.748 185.836C217.515 177.046 207.84 167.188 197.943 169.415C191.51 170.867 168.405 187.459 168.405 187.459L141.624 187.665Z" fill="#263238"/>
<path d="M193.391 183.648C193.414 184.006 193.406 184.366 193.366 184.722C193.326 185.478 193.277 186.456 193.217 187.63C193.109 190.085 193.029 193.482 192.97 197.241C192.911 201.001 192.841 204.398 192.713 206.858C192.658 208.093 192.584 209.086 192.52 209.771C192.505 210.129 192.459 210.485 192.381 210.834C192.35 210.477 192.35 210.118 192.381 209.761C192.381 209.005 192.431 208.027 192.46 206.848C192.5 204.328 192.554 200.956 192.609 197.231C192.663 193.507 192.787 190.075 192.965 187.615C193.054 186.385 193.143 185.392 193.227 184.707C193.25 184.35 193.305 183.996 193.391 183.648Z" fill="#455A64"/>
<path d="M192.51 202.785C192.123 202.454 191.798 202.054 191.55 201.606C190.876 200.574 190.351 199.449 189.991 198.264C189.63 197.08 189.434 195.85 189.407 194.61C189.366 194.102 189.411 193.591 189.541 193.098C189.66 193.098 189.491 195.447 190.343 198.169C191.194 200.89 192.629 202.72 192.51 202.785Z" fill="#455A64"/>
<path d="M162.898 211.066C162.863 211.066 162.814 210.512 162.645 209.509C162.411 208.1 162.03 206.722 161.507 205.396C160.732 203.431 159.671 201.596 158.36 199.953C156.749 197.948 154.775 196.276 152.545 195.029C147.825 192.246 143.673 189.515 140.773 187.378C139.323 186.314 138.185 185.402 137.428 184.732C137.047 184.404 136.765 184.127 136.576 183.946C136.388 183.764 136.289 183.658 136.299 183.648C136.309 183.638 136.735 183.991 137.522 184.621C138.308 185.251 139.457 186.133 140.921 187.166C143.851 189.238 148.018 191.929 152.729 194.726C155.003 195.994 157.009 197.707 158.632 199.766C159.949 201.438 161.003 203.308 161.755 205.31C162.264 206.66 162.614 208.065 162.799 209.499C162.853 209.886 162.888 210.277 162.903 210.668C162.915 210.8 162.913 210.934 162.898 211.066Z" fill="#455A64"/>
<path d="M170.578 187.121C170.486 187.448 170.365 187.765 170.217 188.069C169.955 188.663 169.603 189.54 169.227 190.629C167.111 196.317 166.124 202.376 166.322 208.456C166.357 209.62 166.416 210.562 166.476 211.213C166.523 211.546 166.537 211.884 166.515 212.221C166.422 211.891 166.361 211.554 166.332 211.213C166.228 210.567 166.134 209.625 166.06 208.456C165.714 202.337 166.705 196.216 168.96 190.533C169.395 189.45 169.786 188.588 170.088 188.013C170.222 187.7 170.386 187.401 170.578 187.121Z" fill="#455A64"/>
<path d="M128.827 184.183C128.935 184.238 129.036 184.305 129.129 184.384L129.965 184.999C130.143 185.14 130.346 185.291 130.564 185.453C130.782 185.614 130.99 185.841 131.227 186.058C131.776 186.535 132.292 187.05 132.771 187.6L133.617 188.552C133.885 188.905 134.152 189.278 134.439 189.661L134.869 190.251C135.008 190.457 135.137 190.674 135.27 190.891C135.532 191.324 135.819 191.763 136.087 192.232C137.195 194.287 138.129 196.435 138.878 198.653C139.699 201.001 140.323 203.289 140.857 205.366L142.307 210.91C142.728 212.483 143.069 213.753 143.326 214.625C143.445 215.043 143.534 215.381 143.608 215.633C143.647 215.749 143.673 215.869 143.688 215.99C143.633 215.881 143.59 215.766 143.559 215.648L143.232 214.64C142.945 213.778 142.574 212.513 142.129 210.945C141.683 209.378 141.194 207.498 140.644 205.431C140.095 203.365 139.452 201.077 138.63 198.738C137.888 196.535 136.966 194.399 135.874 192.353C135.617 191.884 135.334 191.45 135.072 191.012C134.944 190.8 134.82 190.583 134.681 190.377L134.261 189.792C133.984 189.409 133.721 189.031 133.454 188.683L132.633 187.726C132.163 187.172 131.659 186.65 131.123 186.163C130.891 185.947 130.688 185.725 130.48 185.548L129.896 185.08L129.094 184.425C128.999 184.352 128.909 184.271 128.827 184.183Z" fill="#455A64"/>
<path d="M141.396 187.459C145.355 190.125 149.72 190.75 154.381 191.657C157.073 192.161 159.889 192.665 162.512 191.869C168.143 190.175 173.587 183.649 177.204 181.32L165.991 177.762L141.396 187.459Z" fill="#C6E1F6"/>
<path d="M149.383 190.11C149.614 189.182 149.929 188.277 150.324 187.408C150.639 186.505 151.035 185.632 151.506 184.802C151.272 185.73 150.956 186.635 150.561 187.504C150.246 188.407 149.852 189.279 149.383 190.11Z" fill="white"/>
<path d="M164.249 189.127C163.523 188.963 162.819 188.712 162.151 188.381C161.453 188.127 160.789 187.789 160.171 187.373C161.595 187.794 162.968 188.377 164.264 189.112L164.249 189.127Z" fill="white"/>
<path d="M168.084 182.116C167.265 182.237 166.435 182.269 165.61 182.212C164.781 182.242 163.952 182.186 163.135 182.046C163.954 181.924 164.784 181.892 165.61 181.95C166.438 181.92 167.267 181.975 168.084 182.116Z" fill="white"/>
</svg>
