<svg width="753" height="613" viewBox="0 0 753 613" fill="none" xmlns="http://www.w3.org/2000/svg">
<path fill-rule="evenodd" clip-rule="evenodd" d="M871.928 209.689C905.945 279.637 964 365.673 901.498 431.912C836.814 500.463 697.097 466.411 597.102 500.948C515.584 529.103 463.205 612.09 377.268 612.974C291.073 613.861 246.787 545.111 184.164 505.195C117.938 462.982 6.13441 441.477 0.778786 373C-4.6283 303.866 112.774 258.742 159.894 194.885C203.689 135.536 189.004 49.8296 265.589 14.1359C342.071 -21.5092 428.932 21.0819 511.865 30.8449C586.122 39.5867 663.683 37.9108 724.609 68.1729C792.755 102.021 843.36 150.943 871.928 209.689Z" fill="#FFEEF2"/>
</svg>
