<svg width="711" height="675" viewBox="0 0 711 675" fill="none" xmlns="http://www.w3.org/2000/svg">
<path fill-rule="evenodd" clip-rule="evenodd" d="M578.223 1.26935C660.742 5.90341 734.398 29.345 808.725 56.262C900.058 89.3377 1005.59 111.373 1059 175.38C1118.88 247.136 1164.79 344.54 1111.5 419.088C1057.96 494.001 904.915 479.564 808.706 525.569C720.989 567.513 681.912 664.781 578.223 674.092C473.615 683.485 387.175 618 303.148 570.965C220.83 524.887 146.465 473.948 99.3155 406.02C44.8387 327.536 -32.7429 236.432 14.778 155.513C62.517 74.2218 208.432 59.6245 320.806 28.8619C404.158 6.04448 489.601 -3.70738 578.223 1.26935Z" fill="#E1E5F0"/>
</svg>
