<svg width="709" height="684" viewBox="0 0 709 684" fill="none" xmlns="http://www.w3.org/2000/svg">
<path fill-rule="evenodd" clip-rule="evenodd" d="M708.509 378.179C710.715 463.297 671.542 477.909 579.126 532.096C519.384 567.125 477.21 613.502 408.065 637.865C331.187 664.953 245.763 695.685 164.451 678.206C83.1881 660.739 49.6289 595.007 -5.55904 548.955C-65.7025 498.769 -148.54 460.944 -172.753 396.826C-200.94 322.184 -224.795 225.883 -148.6 170.169C-70.6911 113.203 69.4879 172.672 172.987 144.024C281.989 113.854 343.393 -21.4332 453.991 3.37765C565.263 28.3398 500.552 167.149 571.384 233.398C643.273 300.638 706.298 292.889 708.509 378.179Z" fill="#E1F0EE"/>
</svg>
